<svg id="Capa_1" enable-background="new 0 0 511.929 511.929" height="512" viewBox="0 0 511.929 511.929" width="512" xmlns="http://www.w3.org/2000/svg"><g><path d="m115.644 385.86c-17.339 17.339-17.37 45.532-.091 62.908 38.945 40.205 28.911 29.93 31.029 32.029 28.253 28.253 70.213 38.499 108.398 25.656 124.868-41.997 209.475-126.604 251.471-251.471 12.982-38.599 2.279-80.464-25.657-108.398-1.95-1.967 9.235 8.944-32.028-31.028-17.424-17.327-45.536-17.284-62.909.09l-52.928 52.929c-17.412 17.412-17.408 45.591 0 62.998l16.235 16.236c4.103 4.102 5.393 10.198 3.288 15.532-16.965 42.999-46.114 72.148-89.112 89.113-5.334 2.106-11.432.814-15.534-3.287l-16.235-16.235c-17.411-17.412-45.59-17.409-62.999 0zm21.213 21.213 52.928-52.928c5.686-5.686 14.886-5.684 20.573 0l16.235 16.235c12.556 12.556 31.301 16.477 47.757 9.98 50.44-19.901 86.107-55.567 106.008-106.009 6.493-16.455 2.575-35.201-9.981-47.757l-16.234-16.235c-5.687-5.687-5.684-14.887 0-20.572l52.928-52.929c5.265-5.265 14.151-6.143 20.743.167l31.849 30.853c20.186 20.248 27.391 50.671 18.354 77.541-38.845 115.496-117.103 193.754-232.6 232.599-26.87 9.04-57.294 1.832-77.543-18.355-38.792-40.046-28.958-29.941-31.016-32.017-5.673-5.672-5.673-14.901-.001-20.573z"/><path d="m0 15.003v233c0 8.284 6.716 15 15 15h75.738l35.891 28.713c5.479 4.383 13.263 4.383 18.741 0l35.891-28.713h74.739c8.284 0 15-6.716 15-15v-233c0-8.284-6.716-15-15-15h-241c-8.284 0-15 6.715-15 15zm30 15h211v203h-65c-3.406 0-6.711 1.159-9.371 3.287l-30.629 24.504-30.629-24.504c-2.66-2.128-5.964-3.287-9.371-3.287h-66z"/><path d="m198.71 102.932c-1.675 8.079-9.313 13.339-17.64 11.78-8.233-1.725-13.315-9.431-11.78-17.641 1.865-8.935 10.778-13.934 19.06-11.42 7.051 2.11 11.862 9.307 10.36 17.281z"/><path d="m150.71 82.932c-1.676 8.086-9.322 13.337-17.64 11.78-8.144-1.707-13.328-9.362-11.78-17.641 1.83-8.764 10.54-13.953 19.07-11.42 7.987 2.612 11.704 10.095 10.35 17.281z"/><path d="m102.71 102.932c-1.686 8.133-9.368 13.329-17.64 11.78-8.304-1.74-13.302-9.505-11.78-17.641 1.838-8.805 10.581-13.941 19.07-11.42 7.243 2.215 11.82 9.478 10.35 17.281z"/><path d="m76.771 167.804v2.146c0 21.974 21.002 37.803 42.119 31.771 18.951-5.416 33.548 0 34.221 0 21.129 6.036 42.119-9.807 42.119-31.771v-2.146c0-32.659-26.57-59.229-59.229-59.229s-59.23 26.57-59.23 59.229zm30 0c0-16.116 13.112-29.229 29.229-29.229s29.229 13.112 29.229 29.229v2.146c0 2.028-1.923 3.484-3.877 2.925-16.619-4.748-34.151-4.729-50.704 0-1.957.561-3.877-.904-3.877-2.925z"/></g></svg>