<svg id="Capa_1" enable-background="new 0 0 512 512" height="512" viewBox="0 0 512 512" width="512" xmlns="http://www.w3.org/2000/svg"><g><path d="m288.072 0c-.159 0-60.459.13-149.264.321-8.284.018-14.985 6.748-14.968 15.032.018 8.274 6.729 14.968 14.999 14.968 2.187 0-7.879.017 22.161-.048v34.727h-29c-14.888 0-27 12.112-27 27 0 61.212.001 31.627.001 40.058-31.802 8.866-55.397 36.078-55.975 68.197-.048 2.808-.019 135.902-.009 277.067 0 17.825 18.067 34.677 37.177 34.677h180.056c19.233 0 36.75-16.216 36.75-34.021 0-92.224 0-198.465 0-277.335 0-32.784-23.731-60.474-55.999-68.952v-39.691c0-14.888-12.112-27-27-27h-29v-34.791l97.031-.209c9.45 0 16.968 7.614 16.968 16.931 0 8.284 6.716 15 15 15s15-6.716 15-15c0-25.832-20.896-46.931-46.928-46.931zm-15.072 238.992v178.008h-193.986l-.012-178.11c5.614.003 189.935.1 193.998.102zm-6.75 243.008h-180.055c-2.728 0-6.504-3.192-7.177-5.038l-.002-29.962h193.984v30.646c-.593 1.521-3.896 4.354-6.75 4.354zm6.75-281.356v8.349c-10.766-.006-183.224-.097-193.984-.103l.009-8.212c.481-22.603 22.583-41.673 48.331-41.673h98.868c25.792-.001 46.776 18.679 46.776 41.639zm-56-71.644h-82v-34h82z"/><path d="m136 343h25v25c0 8.284 6.716 15 15 15s15-6.716 15-15v-25h25c8.284 0 15-6.716 15-15s-6.716-15-15-15h-25v-25c0-8.284-6.716-15-15-15s-15 6.716-15 15v25h-25c-8.284 0-15 6.716-15 15s6.716 15 15 15z"/><path d="m400 217c-34.738 0-63 28.262-63 63s28.262 63 63 63 63-28.262 63-63-28.261-63-63-63zm0 96c-18.196 0-33-14.804-33-33s14.804-33 33-33 33 14.804 33 33-14.803 33-33 33z"/><path d="m416 191c25.916 0 47-21.084 47-47s-21.084-47-47-47-47 21.084-47 47 21.084 47 47 47zm0-64c9.374 0 17 7.626 17 17s-7.626 17-17 17-17-7.626-17-17 7.626-17 17-17z"/></g></svg>