<svg id="Capa_1" enable-background="new 0 0 512.135 512.135" height="512" viewBox="0 0 512.135 512.135" width="512" xmlns="http://www.w3.org/2000/svg"><g><path d="m507.965 41.874-35.6-37.149c-5.373-5.606-14.137-6.188-20.202-1.334l-111.314 89.067c-112.478 29.227-104.76 26.829-107.84 28.955-1.825 1.254 9.278-9.645-167.067 166.7-14.307 14.308-26.036 30.793-34.86 48.999l-29.579 61.02c-2.774 5.722-1.638 12.571 2.833 17.092l91.358 92.358c4.583 4.634 11.607 5.757 17.384 2.861l60.928-30.533c18.172-8.82 34.629-20.535 48.913-34.819 176.227-176.226 165.601-165.382 166.855-167.278 1.967-2.98-.371 4.648 28.746-107.408l90.155-108.569c4.872-5.868 4.567-14.456-.71-19.962zm-138.627 198.519-98.694-98.696 74.082-19.25 43.862 43.862zm-167.632 183.484c-12.492 12.493-25.59 21.501-41.048 29.166l-51.29 25.703-76.242-77.077 24.951-51.472c7.361-15.187 17.145-28.938 29.078-40.872l154.342-154.342 114.552 114.552zm203.036-283.84-33.487-33.487 88.941-71.165 16.849 17.582z"/><path d="m270.528 237.324c-18.326-18.326-48.143-18.326-66.468 0l-73.539 73.539c-18.326 18.325-18.326 48.143 0 66.468 18.323 18.324 48.142 18.327 66.468 0l73.54-73.539c18.323-18.326 18.323-48.143-.001-66.468zm-21.214 45.255-73.539 73.539c-3.211 3.211-7.477 4.979-12.013 4.979-15.049 0-22.743-18.305-12.029-29.021l73.539-73.539c6.626-6.626 17.413-6.63 24.042 0 6.628 6.627 6.628 17.414 0 24.042z"/><path d="m116.235 403.392c-1.843-8.872-10.639-13.923-19.06-11.42-8.155 2.439-12.419 11.246-9.99 18.7 2.275 7.624 10.464 12.463 18.7 10 7.95-2.529 11.798-10.326 10.35-17.28z"/></g></svg>