<svg id="Capa_1" enable-background="new 0 0 512.221 512.221" height="512" viewBox="0 0 512.221 512.221" width="512" xmlns="http://www.w3.org/2000/svg"><g><path d="m190.46 178.649c-2.852-8.966-12.353-12.756-20.09-9.5-7.343 2.947-11.405 11.762-8.11 19.591 3.413 8.051 12.385 11.157 19.591 8.109 7.416-3.127 10.778-11.104 8.609-18.2z"/><path d="m238.46 158.64c-2.775-8.542-11.285-12.241-18.7-9.99-7.628 2.284-12.459 10.44-10 18.71 2.825 8.641 11.319 12.203 18.71 9.99 8.342-2.71 12.28-11.062 9.99-18.71z"/><path d="m286.82 180.069c-2.51-11.966-16.98-15.991-25.32-7.68-8.94 9.223-3.379 24.241 9.13 25.54 9.617.978 18.126-7.507 16.19-17.86z"/><path d="m224.11 191.573c-32.659 0-59.229 26.569-59.229 59.229v2.146c0 21.957 20.99 37.811 42.118 31.771 11.193-3.198 23.027-3.198 34.221 0 21.121 6.035 42.118-9.809 42.118-31.771v-2.146c.001-32.659-26.568-59.229-59.228-59.229zm29.229 61.374c0 2.039-1.937 3.484-3.876 2.925-16.586-4.738-34.119-4.738-50.705 0-1.204.346-2.114-.081-2.666-.496-1.445-1.09-1.21-2.335-1.21-4.574 0-16.116 13.112-29.229 29.229-29.229s29.229 13.112 29.229 29.229v2.145z"/><path d="m224.188 415c-101.885 0-185.682-77.667-193.48-176h33.402c8.284 0 15-6.716 15-15s-6.716-15-15-15h-33.391c7.556-93.553 84.979-170.91 178.583-178.403v33.403c0 8.284 6.716 15 15 15s15-6.716 15-15v-33.404c98.831 7.774 176.886 91.096 176.886 192.404v22.113l-4.366-6.549c-4.596-6.894-13.909-8.756-20.801-4.16-6.894 4.595-8.756 13.908-4.16 20.801l31.847 47.77c6.312 9.117 19.008 8.613 24.813.208.43-.622 10.922-16.369 31.994-47.977 4.596-6.893 2.732-16.206-4.16-20.801-6.894-4.596-16.206-2.734-20.801 4.16l-4.365 6.548v-22.113c0-122.963-99.589-223-222-223-122.752 0-224.079 101.279-224.079 224 0 121.859 100.521 221 224.077 221 8.284 0 15-6.716 15-15s-6.715-15-14.999-15z"/><path d="m383.922 481.884c-13.68.172-28.21.284-40.123.303 7.412-10.041 17.831-24.359 32.188-44.873 8.485-12.123 14.02-23.58 16.448-34.054.308-1.322 1.044-7.131 1.044-8.527 0-27.016-21.979-48.994-48.994-48.994-23.359 0-43.578 16.618-48.075 39.515-1.597 8.129 3.698 16.013 11.827 17.609 8.131 1.596 16.014-3.698 17.61-11.827 1.741-8.864 9.579-15.297 18.638-15.297 10.199 0 18.547 8.081 18.977 18.176l-.413 3.239c-1.66 6.572-5.573 14.291-11.64 22.958-29.297 41.859-41.425 56.846-46.238 63.978-1.959 2.901-6.033 8.938-3.621 16.61 1.524 4.85 5.212 8.569 10.114 10.203 2.015.673 3.944 1.318 29.661 1.318 10.139 0 23.979-.101 42.974-.339 8.283-.104 14.914-6.904 14.811-15.188-.105-8.284-6.882-14.877-15.188-14.81z"/><path d="m497.11 443.348h-2.146c.172-30.401.256-62.512-.118-66.997-1.815-21.786-25.733-31.261-40.936-12.604-7.261 8.908-40.658 69.115-50.722 87.355-5.506 9.981 1.725 22.246 13.134 22.246h48.442c-.061 8.276-.123 16.212-.184 23.372-.071 8.284 6.587 15.057 14.871 15.127 7.996.178 15.055-6.412 15.127-14.871.038-4.412.109-12.989.188-23.628h2.343c8.284 0 15-6.716 15-15s-6.714-15-14.999-15zm-32.15 0h-23.143c8.527-15.242 16.825-29.851 23.299-40.972-.011 11.458-.071 25.936-.156 40.972z"/></g></svg>