<svg id="Capa_1" enable-background="new 0 0 511.98 511.98" height="512" viewBox="0 0 511.98 511.98" width="512" xmlns="http://www.w3.org/2000/svg"><g><path d="m484.98 120.99h-77.99v-53c0-14.888-12.112-27-27-27h-248c-14.888 0-27 12.112-27 27v53h-77.99c-14.888 0-27 12.112-27 27v296c0 14.888 12.112 27 27 27h457.98c14.888 0 27-12.112 27-27 0-14.315 0-281.52 0-296 0-14.888-12.112-27-27-27zm-349.99-50h242v50h-242zm346.99 80v210.903c-39.527 5.716-73.185 37.489-79.809 79.097h-292.36c-6.624-41.657-40.318-73.384-79.811-79.097v-210.903zm-451.98 290v-48.48c24.286 5.356 43.519 24.333 49.244 48.48zm451.98 0h-49.244c5.725-24.147 24.958-43.124 49.244-48.48z"/><path d="m175.99 310.99h65v65c0 8.284 6.716 15 15 15s15-6.716 15-15v-65h65c8.284 0 15-6.716 15-15s-6.716-15-15-15h-65v-65c0-8.284-6.716-15-15-15s-15 6.716-15 15v65h-65c-8.284 0-15 6.716-15 15s6.716 15 15 15z"/></g></svg>