<svg id="Capa_1" enable-background="new 0 0 512 512" height="512" viewBox="0 0 512 512" width="512" xmlns="http://www.w3.org/2000/svg"><g><path d="m218.609 290.609c8.903-8.934 3.472-24.208-9.13-25.54-8.033-.795-15.516 5.005-16.41 13.45-1.408 13.864 15.352 22.023 25.54 12.09z"/><path d="m241.29 262.93c1.65 7.957 9.197 13.362 17.64 11.78 8.186-1.714 13.32-9.408 11.78-17.641-1.851-8.826-10.599-13.938-19.07-11.42-8.107 2.651-11.774 10.492-10.35 17.281z"/><path d="m294.49 291.6c10.262 8.098 24.51.746 24.51-11.6 0-13.077-15.796-20.124-25.61-10.61-6.529 6.735-5.449 16.886 1.1 22.21z"/><path d="m256 288.573c-32.659 0-59.229 26.569-59.229 59.229v2.146c0 22.006 21.04 37.793 42.118 31.771 11.193-3.197 23.027-3.197 34.221 0 21.118 6.032 42.118-9.797 42.118-31.771v-2.146c.001-32.659-26.569-59.229-59.228-59.229zm29.229 61.374c0 2.035-1.93 3.482-3.876 2.925-16.586-4.738-34.119-4.738-50.705 0-1.204.344-2.114-.081-2.666-.496-1.445-1.09-1.21-2.335-1.21-4.574 0-16.116 13.112-29.229 29.229-29.229s29.229 13.112 29.229 29.229v2.145z"/><path d="m319 109.478v-16.001c22.607-3.391 40-22.939 40-46.477 0-25.916-21.084-47-47-47h-112c-25.916 0-47 21.084-47 47 0 23.538 17.393 43.085 40 46.477v15.98c-14.224 37.259-80 54.12-80 93.693v233.7c0 41.066 33.232 75.15 74.15 75.15h137.7c40.928 0 74.15-34.097 74.15-75.15v-233.7c0-39.613-65.889-56.404-80-93.672zm-176 307.522v-210h226v210zm40-370c0-9.374 7.626-17 17-17h112c9.374 0 17 7.626 17 17s-7.626 17-17 17c-16.582 0-97.978 0-112 0-9.374 0-17-7.626-17-17zm39.281 69.589c.955-2.972.719-4.067.719-22.589h66c0 18.341-.234 19.598.707 22.552 8.442 26.509 31.604 44.148 53.297 60.448h-174.055c21.748-16.362 44.809-33.888 53.332-60.411zm102.569 365.411h-137.7c-20.531 0-38.316-15.222-42.96-35h223.62c-4.644 19.778-22.43 35-42.96 35z"/></g></svg>