<svg id="Capa_1" enable-background="new 0 0 512 512" height="512" viewBox="0 0 512 512" width="512" xmlns="http://www.w3.org/2000/svg"><g><path d="m447 250.035v-69.365c0-13.785-11.215-25-25-25h-129.667v-130.67c0-13.785-11.215-25-25-25h-86.666c-13.785 0-25 11.215-25 25v130.667h-130.667c-13.785 0-25 11.215-25 25v86.666c0 13.785 11.215 25 25 25h130.67v129.667c0 13.785 11.215 25 25 25h69.365c49.538 76.332 155.554 87.311 219.916 22.951 64.355-64.357 53.386-170.374-22.951-219.916zm-261.33 166.965v-139.67c0-8.284-6.716-15-15-15-.978 0-1.007.003-140.67.003v-76.666h140.667c8.284 0 15-6.716 15-15v-140.667h76.666v140.612c0 8.472 6.817 15.058 14.997 15.058h139.67v49.559c-93.093-33.039-190 36.268-190 133.83 0 16.811 2.908 32.947 8.229 47.941zm183.389 65c-62.294 0-112.059-51.219-112.059-112.941 0-61.789 50.27-112.059 112.059-112.059 19.754 0 38.337 5.064 54.508 13.943.661.45 1.365.836 2.096 1.178 33.659 19.423 56.337 55.601 56.337 96.938 0 62.276-50.665 112.941-112.941 112.941z"/><path d="m322.48 347.93c12.508-1.297 18.073-16.366 9.13-25.54-6.746-6.557-16.887-5.411-22.21 1.1-8.534 10.498.03 25.768 13.08 24.44z"/><path d="m369 328c13.242 0 20.087-16.149 10.6-25.61-6.265-6.265-16.615-5.733-22.2 1.1-7.998 9.839-1.004 24.51 11.6 24.51z"/><path d="m431.71 330.069c-2.917-13.904-21.496-16.45-27.93-4.13-3.995 7.466-.993 16.449 6.149 20.28 10.869 5.83 24.171-3.371 21.781-16.15z"/><path d="m369 341.573c-32.659 0-59.229 26.569-59.229 59.229v2.146c0 21.957 20.99 37.811 42.118 31.771 11.193-3.199 23.027-3.197 34.221 0 21.121 6.035 42.118-9.809 42.118-31.771v-2.146c.001-32.659-26.569-59.229-59.228-59.229zm29.229 61.374c0 2.028-1.925 3.486-3.876 2.925-16.586-4.738-34.119-4.738-50.705 0-1.205.343-2.114-.081-2.666-.496-1.445-1.09-1.21-2.335-1.21-4.574 0-16.116 13.112-29.229 29.229-29.229s29.229 13.112 29.229 29.229v2.145z"/></g></svg>