<svg id="Capa_1" enable-background="new 0 0 512 512" height="512" viewBox="0 0 512 512" width="512" xmlns="http://www.w3.org/2000/svg"><g><path d="m343.5 0c-100.945 0-173.228 98.245-144.882 194.563-97.567-11.415-182.118 63.257-182.118 157.647 0 88.108 72.934 159.79 162.58 159.79 110.504 0 188.9-106.603 154.473-209.336 87.857 5.738 161.947-63.827 161.947-150.664 0-83.483-68.536-152-152-152zm-31.84 352.21c0 71.566-59.476 129.79-132.58 129.79s-132.58-58.224-132.58-129.79c0-84.214 82.231-146.024 166.349-124.576 18.802 32.354 49.271 57.124 85.607 68.504 8.644 17.369 13.204 36.625 13.204 56.072zm31.84-79.21c-66.72 0-121-54.28-121-121 0-67.271 54.28-122 121-122 67.271 0 122 54.729 122 122 0 66.72-54.729 121-122 121z"/><path d="m190.5 272c0-8.284-6.716-15-15-15s-15 6.716-15 15v65h-65c-8.284 0-15 6.716-15 15s6.716 15 15 15h65v65c0 8.284 6.716 15 15 15s15-6.716 15-15v-65h65c8.284 0 15-6.716 15-15s-6.716-15-15-15h-65z"/><path d="m285.99 131.6c6.198 5.066 15.505 4.557 21.109-2.09 5.542-7.022 3.929-16.19-2.09-21.11-6.731-5.485-16.906-4.24-21.98 3.271-4.213 6.411-3.113 14.82 2.961 19.929z"/><path d="m335.17 112.47c11.121 7.308 25.514-2.171 23.04-15.4-2.503-11.933-16.978-16.022-25.32-7.68-6.829 7.024-5.395 17.913 2.28 23.08z"/><path d="m406.21 117.069c-1.912-9.114-11.093-13.963-19.07-11.409-7.856 2.385-12.386 10.641-9.99 18.699 2.806 8.582 11.247 12.209 18.71 9.99 7.857-2.552 11.719-9.958 10.35-17.28z"/><path d="m343.5 128.573c-32.659 0-59.229 26.569-59.229 59.229v2.146c0 21.957 20.99 37.81 42.118 31.771 11.193-3.199 23.027-3.197 34.221 0 21.121 6.035 42.118-9.809 42.118-31.771v-2.146c.001-32.659-26.569-59.229-59.228-59.229zm29.229 61.374c0 2.022-1.925 3.489-3.876 2.925-16.586-4.738-34.119-4.738-50.705 0-1.204.345-2.114-.082-2.666-.496-1.445-1.09-1.21-2.335-1.21-4.574 0-16.116 13.112-29.229 29.229-29.229s29.229 13.112 29.229 29.229v2.145z"/></g></svg>