<svg id="Capa_1" enable-background="new 0 0 512 512" height="512" viewBox="0 0 512 512" width="512" xmlns="http://www.w3.org/2000/svg"><g><path d="m440 369h-22.089c8.23-11.591 13.089-25.734 13.089-41 0-39.149-31.851-71-71-71h-27.067c25.71-76.83-27.391-121.383-103.496-150.98-11.7-4.548-23.58 6.562-19.703 18.614 3.375 10.488 9.042 41.271-5.062 57.535l-.673.774c-12.613 14.52-30.771 35.422-23.052 74.057h-28.947c-39.149 0-71 31.851-71 71 0 15.266 4.859 29.409 13.089 41h-22.089c-39.193 0-72 31.942-72 71 0 39.028 32.972 72 72 72h368c39.028 0 72-32.972 72-72 0-39.047-32.8-71-72-71zm-213.354-166.383c11.202-12.894 18.492-30.982 16.857-57.845 32.962 15.952 53.748 33.894 61.92 53.504 8.242 19.777 3.109 39.691-4.516 58.724h-89.163c-7.874-28.15 2.764-40.409 14.902-54.383zm-115.646 125.383c0-22.607 18.393-41 41-41h208c22.607 0 41 18.393 41 41s-18.393 41-41 41h-208c-22.607 0-41-18.393-41-41zm329 154h-368c-22.374 0-42-19.626-42-42 0-22.225 19.233-41 42-41h368c22.767 0 42 18.775 42 41 0 22.374-19.626 42-42 42z"/><path d="m329.014 104c-8.673 0-15.49-7.289-14.988-15.874 1.439-24.642 8.901-53.083 54.213-54.311 8.284-.225 13.812-3.283 17.398-9.627 2.825-4.999 3.398-10.214 3.402-10.263.593-8.262 7.762-14.468 16.035-13.888 8.263.594 14.481 7.772 13.888 16.036-1.153 16.072-13.069 46.732-49.911 47.729-10.267.278-17.045 2.35-20.146 6.156-2.807 3.445-4.327 9.587-4.93 19.914-.466 7.974-7.077 14.128-14.961 14.128z"/><path d="m360.014 159c-8.673 0-15.49-7.289-14.988-15.874 1.439-24.642 8.901-53.083 54.213-54.311 8.284-.225 13.812-3.283 17.398-9.627 2.825-4.999 3.398-10.214 3.402-10.263.593-8.262 7.762-14.468 16.035-13.888 8.263.594 14.481 7.772 13.888 16.036-1.153 16.072-13.069 46.732-49.911 47.729-10.267.278-17.045 2.35-20.146 6.156-2.807 3.445-4.327 9.587-4.93 19.914-.466 7.974-7.077 14.128-14.961 14.128z"/></g></svg>