<svg id="Capa_1" enable-background="new 0 0 512.036 512.036" height="512" viewBox="0 0 512.036 512.036" width="512" xmlns="http://www.w3.org/2000/svg"><g><path d="m507.737 4.495c-5.805-5.907-15.3-5.994-21.213-.189l-46.214 45.395-3.531-3.532c-9.07-9.073-24.231-9.887-36.049-1.938-1.724 1.162 2.053-2.447-48.047 47.654l-9.205-9.206c-10.533-10.508-27.657-10.503-38.171.013-98.045 98.057-103.463 103.471-205.053 205.053l-6.364-6.364c-5.857-5.857-15.355-5.857-21.213 0s-5.858 15.355 0 21.213c22.803 22.803 22.654 22.827 34.562 34.735l-69.756 69.756-11.837-11.926c-5.837-5.882-15.334-5.915-21.214-.08-5.879 5.836-5.915 15.334-.079 21.214l90.624 91.304c5.834 5.877 15.332 5.916 21.213.079 5.88-5.836 5.916-15.334.08-21.213l-12.581-12.675c1.061-1.021 17.682-17.656 70.018-69.991 6.251 6.251 10.038 9.866 34.733 34.562 2.929 2.929 6.768 4.394 10.606 4.394 13.244 0 20.083-16.131 10.606-25.606l-6.368-6.368 17.343-17.343c4.24 8.449 10.201 16.764 18.121 24.685l88.233 88.232c5.859 5.859 15.355 5.858 21.213 0l88.232-88.232c38.34-38.34 30.869-85.929 3.676-113.122-24.735-24.733-66.343-33.148-102.515-5.62-4.618-3.515-9.325-6.436-14.074-8.82l84.823-84.823c10.595-10.595 10.473-27.731.002-38.181l-9.343-9.344 45.007-45.007c12.098-9.375 13.023-26.789 2.54-37.268l-5.021-5.021 46.023-45.207c5.913-5.806 5.998-15.303.193-21.213zm-424.326 447.17-24.041-24.041 69.082-69.083 24.042 24.042zm284.786-121.778c25.688-25.688 54.015-20.355 70.695-3.677 16.68 16.68 22.012 45.008-3.676 70.696l-77.626 77.626-77.627-77.626c-10.73-10.73-16.032-21.918-17.371-32.528-.033-.586-.094-1.169-.195-1.749-2.383-27.747 22.708-52.766 50.441-50.3.494.083.99.139 1.488.171 10.648 1.312 21.883 6.613 32.657 17.386 5.853 5.855 15.358 5.859 21.214.001zm-58.8-47.636c-42.071-.114-77.193 35.23-77.078 77.068l-30.246 30.244c-29.102-29.102-52.1-52.1-80.606-80.606l114.61-114.61 34.073 34.073c5.859 5.859 15.355 5.858 21.213 0 5.858-5.857 5.858-15.355 0-21.213l-34.073-34.073 24.042-24.042 34.205 34.205c5.859 5.859 15.355 5.858 21.213 0 5.858-5.857 5.858-15.355 0-21.213l-34.205-34.205 21.853-21.853c21.652 21.655 47.315 47.321 80.606 80.616zm88.39-145.257c-14.848-14.848-9.524-9.524-23.894-23.896l43.694-43.694 23.895 23.895z"/></g></svg>