<svg id="Capa_1" enable-background="new 0 0 511 511" height="512" viewBox="0 0 511 511" width="512" xmlns="http://www.w3.org/2000/svg"><g><path d="m324.231 368.935c-8.661-16.16-10.54-23.655-10.947-32.821 42.364-21.586 69.216-64.925 69.216-113.114v-112c0-2.645.858 1.584-18.769-76.921-5.02-20.065-22.97-34.079-43.651-34.079h-129.16c-20.681 0-38.631 14.014-43.652 34.082-19.78 79.119-18.738 74.189-18.761 76.787-.01 1.219-.007 109.118-.007 112.131 0 49.698 28.388 92.269 69.198 113.107-.444 8.79-2.4 16.73-10.995 32.905-49.064 9.062-130.203 28.509-130.203 77.988v49c0 8.284 6.716 15 15 15s15-6.716 15-15v-49c0-6.538 7.068-28.32 93.699-46.145 2.312 2.656 1.657 1.948 28.648 17.153 28.335 15.966 64.961 15.972 93.306 0 26.553-14.958 26.421-14.5 28.814-17.345 56.581 11.088 93.533 29.127 93.533 46.337v49c0 8.284 6.716 15 15 15s15-6.716 15-15v-49c0-49.676-80.974-69.638-130.269-78.065zm-147.86-327.574c1.674-6.689 7.657-11.361 14.549-11.361h129.16c6.892 0 12.875 4.672 14.548 11.358l13.661 54.642h-48.78c-6.759-18.467-24.185-32-44.008-32s-37.25 13.533-44.008 32h-48.78zm79.129 52.639c8.897 0 17 8.96 17 18.8 0 9.374-7.626 17-17 17s-17-7.626-17-17c0-9.84 8.103-18.8 17-18.8zm-97 129v-97h51.9c5.72 19.508 23.767 33.8 45.1 33.8s39.38-14.292 45.1-33.8h51.9v97c0 54.116-43.779 97-97 97-53.266 0-97-43.071-97-97zm128.927 168.872c-19.097 10.76-44.757 10.76-63.854 0l-11.591-6.529c9.356-17.299 13.203-28.418 14.776-38.604 18.295 4.221 38.18 4.462 57.433.012 1.537 10.263 5.36 21.213 14.817 38.598z"/><path d="m167.504 448c-.509 0-2.963.036-16.781.211-17.079-.238-15.043-.211-15.227-.211-8.186 0-14.879 6.579-14.994 14.79-.116 8.284 6.505 15.093 14.789 15.208 19.623.275 10.993.272 32.4 0 8.283-.105 14.914-6.905 14.809-15.189-.105-8.218-6.801-14.809-14.996-14.809z"/></g></svg>