<svg id="Capa_1" enable-background="new 0 0 512 512" height="512" viewBox="0 0 512 512" width="512" xmlns="http://www.w3.org/2000/svg"><g><path d="m484 185.5c-15.55 0-106.352 0-125 0v-32.66h20.843c54.665 0 101.237-39.278 114.702-92.672 2.385-9.463-4.774-18.668-14.545-18.668h-448c-9.759 0-16.935 9.196-14.544 18.671 13.09 51.865 57.015 89.859 108.837 92.518 3.739.201 4.093.151 26.707.151v32.66c-19.423 0-110.658 0-126 0-14.888 0-27 12.112-27 27v168c0 14.888 12.112 27 27 27h38v39.27c0 13.307 11.86 23.73 27 23.73h72c15.14 0 27-10.424 27-23.73v-39.27h130v39.27c0 13.307 11.86 23.73 27 23.73h72c15.14 0 27-10.424 27-23.73v-39.27h37c15.178 0 28-12.364 28-27v-168c0-14.636-12.822-27-28-27zm-356.136-62.771c-31.649-1.623-60.143-21.849-74.492-51.229h405.28c-14.271 29.389-42.417 49.582-74.551 51.231-3.556.192-253.214.161-256.237-.002zm55.136 30.111h146v32.66h-146zm194 62.66v82h-242v-82zm-216 225h-66v-33h66zm256 0h-66v-33h66zm65-63h-452v-162h75v85c0 14.888 12.112 27 27 27h248c14.888 0 27-12.112 27-27v-85h75z"/><path d="m241.29 259.43c1.69 8.151 9.387 13.325 17.64 11.78 8.263-1.732 13.309-9.467 11.78-17.641-1.873-8.974-10.816-13.923-19.06-11.42-6.983 2.089-11.878 9.225-10.36 17.281z"/><path d="m305.29 259.43c1.69 8.151 9.387 13.325 17.64 11.78 8.263-1.732 13.309-9.467 11.78-17.641-1.83-8.764-10.54-13.953-19.07-11.42-7.145 2.185-11.842 9.358-10.35 17.281z"/><path d="m177.29 259.43c1.69 8.151 9.387 13.325 17.64 11.78 8.263-1.732 13.309-9.467 11.78-17.641-1.83-8.764-10.54-13.953-19.07-11.42-7.145 2.185-11.842 9.358-10.35 17.281z"/></g></svg>