<svg id="Capa_1" enable-background="new 0 0 512 512" height="512" viewBox="0 0 512 512" width="512" xmlns="http://www.w3.org/2000/svg"><g><path d="m484 110.789h-183.159c-4.849-11.052-17.108-20.43-28.841-20.43h-32c-11.734 0-23.992 9.378-28.841 20.43h-184.159c-14.888 0-27 12.112-27 27v105.74c0 14.888 12.112 27 27 27h185.654c5.621 9.819 16.846 17.83 27.346 17.83h1v34h-5c-5.359 0-10.311 2.859-12.99 7.5l-20 34.641c-2.68 4.641-2.68 10.359 0 15l20 34.641c2.679 4.641 7.631 7.5 12.99 7.5h40c5.359 0 10.311-2.859 12.99-7.5l20-34.641c2.68-4.641 2.68-10.359 0-15l-20-34.641c-2.68-4.641-7.631-7.5-12.99-7.5h-5v-34h1c10.5 0 21.725-8.011 27.346-17.83h184.654c15.178 0 28-12.364 28-27v-105.74c0-14.635-12.822-27-28-27zm-205.32 261.211-11.34 19.641h-22.68l-11.34-19.641 11.34-19.641h22.68zm-121.189-131.471-55.072-46.558 55.599-53.182h50.982v99.74zm-127.491-99.74h84.617l-44.986 43.03c-6.431 6.151-6.124 16.539.684 22.295l40.708 34.415h-81.023zm243 115.48c-.586.737-1.552 1.621-2.296 2.09h-29.408c-.745-.47-1.71-1.353-2.296-2.09v-133.976c.58-.693 1.503-1.506 2.21-1.935h29.579c.707.428 1.631 1.241 2.211 1.935zm209-15.74h-179v-99.74h179z"/><path d="m345.069 192.189c.862 8.313 8.267 14.287 16.41 13.45 8.004-.667 14.287-8.065 13.44-16.4-.691-8.284-8.62-14.956-17.851-13.23-7.922 1.654-12.743 8.856-11.999 16.18z"/><path d="m409.29 193.649c1.673 8.061 9.298 13.343 17.64 11.78 7.988-1.664 13.361-9.197 11.78-17.64-1.874-8.944-10.721-13.902-19.07-11.42-7.159 2.181-11.831 9.368-10.35 17.28z"/></g></svg>