<svg id="Capa_1" enable-background="new 0 0 512.048 512.048" height="512" viewBox="0 0 512.048 512.048" width="512" xmlns="http://www.w3.org/2000/svg"><g><path d="m472.534 39.44c-52.691-52.587-140.597-52.594-193.318.022l-239.739 240.273c-25.454 25.404-39.472 59.661-39.472 96.459 0 76.627 60.527 135.854 135.619 135.854 36.547 0 70.693-13.991 96.147-39.395l240.764-240.294c52.473-52.371 52.883-140.137-.001-192.919zm-199.142 349.247-150.415-150.123 114.771-115.026 150.655 150.362zm-62.876 62.753c-40.595 40.517-109.188 40.518-149.785 0-40.867-40.788-40.867-109.705.022-150.515l41.013-41.104 150.372 150.079zm240.764-240.294-41.622 41.541-150.7-150.406 41.535-41.628c40.866-40.786 109.918-40.789 150.786 0 40.868 40.788 40.868 109.705.001 150.493z"/><path d="m399.645 120.297c7.3 3.073 16.251-.134 19.629-8.11 3.078-7.288-.136-16.226-8.126-19.59-7.635-3.216-17.178.41-20.129 9.49-2.137 7.112 1.115 15.039 8.626 18.21z"/><path d="m426.889 164.657c-1.833-8.81-10.625-13.941-19.107-11.42-8.547 2.779-12.251 11.239-10.009 18.71 2.752 8.458 11.178 12.24 18.746 9.99 6.943-2.104 11.899-9.131 10.37-17.28z"/><path d="m358.876 96.777c-1.895-9.023-10.82-13.887-19.108-11.42-7.882 2.388-12.436 10.722-10.01 18.7 2.429 8.109 11.213 12.437 18.737 9.99 6.998-2.079 11.892-9.22 10.381-17.27z"/><path d="m120.351 402.717c-1.851-8.856-10.67-13.933-19.107-11.42-8.706 2.828-12.199 11.377-10.01 18.71 2.784 8.53 11.26 12.22 18.746 9.99 7.888-2.566 11.745-9.959 10.371-17.28z"/><path d="m181.61 409.456c-1.917-9.171-11.243-13.972-19.097-11.41-7.634 2.263-12.483 10.455-10.02 18.7 2.791 8.551 11.236 12.216 18.747 9.99 7.145-2.171 11.861-9.336 10.37-17.28z"/><path d="m93.108 358.357c7.27 3.066 16.25-.115 19.628-8.11 3.059-7.225-.08-16.197-8.125-19.59-7.622-3.209-17.15.362-20.129 9.49-2.145 7.181 1.179 15.067 8.626 18.21z"/></g></svg>