<svg id="Capa_1" enable-background="new 0 0 512.03 512.03" height="512" viewBox="0 0 512.03 512.03" width="512" xmlns="http://www.w3.org/2000/svg"><g><path d="m507.577 245.365c-86.539-85.846-30.1-29.477-240.941-240.942-5.859-5.877-15.374-5.871-21.229-.016l-241 241c-9.422 9.422-2.738 25.607 10.606 25.607h50v213c0 15.177 12.364 28 27 28h328c14.636 0 27-12.823 27-28v-213h50c13.351 0 20.062-16.228 10.564-25.649zm-412.563 177.649h66.999c-1.328 10.716-.999 13.321-.999 59h-66zm96 59v-43.072c0-36.697 20.763-69.354 49.369-77.652 43.991-12.764 80.631 29.598 80.631 77.724v43zm160 0c0-44.451.335-48.407-1-59h67v59zm66-89h-74.704c-4.487-11.239-10.642-21.636-18.322-30.756-46.412-55.113-126.825-39.6-154.414 30.756h-74.56v-122h322zm-223.628-152c8.161-26.33 36.04-50 62.628-50s54.467 23.67 62.628 50zm156.122 0c-8.379-42.295-50.578-80-93.494-80s-85.115 37.705-93.494 80h-111.293l204.771-204.771c192.146 192.713 152.47 153.062 204.596 204.771z"/></g></svg>