<svg id="Capa_1" enable-background="new 0 0 512 512" height="512" viewBox="0 0 512 512" width="512" xmlns="http://www.w3.org/2000/svg"><g><path d="m112 175.013c25.916 0 47-21.084 47-47s-21.084-47-47-47-47 21.084-47 47 21.084 47 47 47zm0-64c9.374 0 17 7.626 17 17s-7.626 17-17 17-17-7.626-17-17 7.626-17 17-17z"/><path d="m409.493 57.087-79.654-7.965c-231.116-34.24-216.122-32.109-217.839-32.109-61.757 0-112 49.794-112 111 0 21.816 6.387 42.18 17.4 59.358.271 1.171 13.368 46.931 64.177 224.763 1.84 6.439 7.726 10.879 14.423 10.879h9v57c0 8.284 6.716 15 15 15s15-6.716 15-15v-57h17c8.284 0 15-6.716 15-15v-176.984l162.838-24.125 79.654-7.965c7.668-.767 13.507-7.22 13.507-14.926v-112c.001-7.706-5.838-14.159-13.506-14.926zm-298.553-10.067 202.06 29.934v102.117l-202.06 29.935c-44.73-.561-80.94-36.679-80.94-80.993s36.21-80.432 80.94-80.993zm26.06 345.993h-29.686l-47.688-166.91c15.639 8.235 33.465 12.91 52.374 12.91 1.575 0 .387.106 25-3.54zm256-222.575-50 5v-94.85l50 5z"/><path d="m472 111.013h25c8.284 0 15-6.716 15-15s-6.716-15-15-15h-25c-8.284 0-15 6.716-15 15s6.716 15 15 15z"/><path d="m497 145.013h-25c-8.284 0-15 6.716-15 15s6.716 15 15 15h25c8.284 0 15-6.716 15-15s-6.716-15-15-15z"/></g></svg>