<svg id="Capa_1" enable-background="new 0 0 512 512" height="512" viewBox="0 0 512 512" width="512" xmlns="http://www.w3.org/2000/svg"><g><path d="m454.972 482.215-20.428-390.067c-.107-6.98-2.672-13.366-6.853-18.321 14.228-51.882 13.671-49.02 13.671-51.871 0-3.534 0-9.448-4.248-14.752-5.77-7.204-14.648-7.204-17.566-7.204h-327.111c-2.918 0-11.797 0-17.567 7.204-4.249 5.304-4.249 11.219-4.249 14.753 0 2.811-.59-.132 13.673 51.871-4.181 4.955-6.746 11.341-6.854 18.32-1.639 31.229-20.447 388.416-20.447 390.852 0 15.991 12.881 29 28.715 29h340.57c16.84 0 29.488-14.615 28.694-29.785zm-55.586-418.608c-2.646.028 11.029.002-48.394.002v-33.609h57.61zm-128.393.002v-33.609h50v33.609zm-80 0v-33.609h50v33.609zm-30-33.609v33.609h-48.111c-.421 0 .448 2.66-9.5-33.609zm-69.087 358.82h151.324l20.439 14.104-20.358 14.076h-152.883c.402-7.668.885-16.884 1.478-28.18zm-4.843 93.18c1.168-22.8 1.309-25.593 1.797-35h159.132c3.048 0 6.024-.929 8.531-2.662l42.07-29.09c8.622-5.963 8.616-18.731-.013-24.684l-42.16-29.09c-2.505-1.729-5.476-2.654-8.519-2.654h-154.421c1.275-24.282 12.399-236.146 13.925-265.211h297.175l20.339 388.391z"/><path d="m327.993 169c-17.315 0-32.848 9.444-41.007 24h-61.986c-8.159-14.557-23.691-24-41.007-24-36.346 0-58.97 39.752-40.401 71-18.557 31.226 4.025 71 40.401 71 17.316 0 32.848-9.443 41.007-24h61.986c8.159 14.556 23.691 24 41.007 24 36.354 0 58.968-39.754 40.4-71 18.56-31.233-4.029-71-40.4-71zm11.231 82.249c3.666 3.234 5.769 7.881 5.769 12.751 0 9.374-7.626 17-17 17-7.764 0-14.535-5.239-16.466-12.739-1.706-6.628-7.683-11.261-14.527-11.261h-82.016c-6.844 0-12.821 4.633-14.526 11.261-1.931 7.5-8.701 12.739-16.465 12.739-9.374 0-17-7.626-17-17 0-4.87 2.103-9.518 5.769-12.751 6.766-5.969 6.764-16.53 0-22.497-3.666-3.234-5.769-7.882-5.769-12.751 0-9.374 7.626-17 17-17 7.764 0 14.535 5.238 16.465 12.739 1.706 6.628 7.682 11.261 14.526 11.261h82.016c6.844 0 12.82-4.633 14.526-11.261 1.931-7.5 8.702-12.739 16.466-12.739 9.374 0 17 7.626 17 17 0 4.87-2.103 9.517-5.769 12.751-6.755 5.96-6.776 16.518.001 22.497z"/></g></svg>