<svg id="Capa_1" enable-background="new 0 0 512 512" height="512" viewBox="0 0 512 512" width="512" xmlns="http://www.w3.org/2000/svg"><g><path d="m496.923 81.699c19.055-19.042 20.224-51.282 2.502-68.992-17.796-17.786-50.75-16.71-70.408 2.87-24.581-3.63-49.821 4.517-67.578 22.266l-255.518 255.356-.708-.708c-5.859-5.856-15.371-5.86-21.234 0l-22.649 22.636c-21.804 21.79-31.567 52.946-26.499 83.069l-18.801 18.79c-21.373 21.359-21.373 57.45 0 78.809 22.558 22.546 58.366 20.466 78.068-.214l18.791-19.542c30.083 4.986 61.168-4.774 82.924-26.515l22.649-22.635c5.864-5.859 5.864-15.361 0-21.22l-.708-.708 255.519-255.356c17.575-17.564 25.742-42.445 22.389-66.767.478-.409.786-.664 1.261-1.139zm-322.344 346.605c-16.361 16.35-40.447 22.792-62.855 16.817-5.279-1.406-10.91.164-14.697 4.102l-24.467 25.446c-9.753 9.646-25.515 9.679-35.296-.094-9.693-9.687-9.693-26.681 0-36.369l24.582-24.566c3.789-3.786 5.271-9.305 3.89-14.479-5.98-22.396.468-46.465 16.829-62.814l12.032-12.024 92.014 91.956zm301.449-368.173-6.579 5.645c-4.376 3.755-6.213 9.684-4.726 15.253 4.509 16.885-.351 35.031-12.683 47.355l-255.52 255.357-69.365-69.322 78.954-78.904 15.211 14.562c2.91 2.786 6.649 4.169 10.385 4.169 13.493 0 20.109-16.536 10.389-25.841l-14.746-14.116 26.625-26.608 31.179 31.16c2.932 2.931 6.774 4.395 10.617 4.395 13.257 0 20.103-16.137 10.617-25.615l-31.179-31.16 27.314-27.297 14.663 14.654c2.932 2.931 6.774 4.395 10.617 4.395 13.262 0 20.098-16.141 10.617-25.616l-14.663-14.654 58.917-58.88c12.333-12.325 30.485-17.185 47.386-12.675 5.178 1.381 10.699-.102 14.488-3.888l6.075-6.072c7.168-7.163 21.595-8.47 27.569-2.501 5.867 5.862 4.738 18.932-2.162 26.204z"/></g></svg>