<svg id="Capa_1" enable-background="new 0 0 512 512" height="512" viewBox="0 0 512 512" width="512" xmlns="http://www.w3.org/2000/svg"><g><path d="m241.139 317.5h-50.123v-50.123c0-8.284-6.716-15-15-15s-15 6.716-15 15v50.123h-50.123c-8.284 0-15 6.716-15 15s6.716 15 15 15h50.123v50.123c0 8.284 6.716 15 15 15s15-6.716 15-15v-50.123h50.123c8.284 0 15-6.716 15-15s-6.716-15-15-15z"/><path d="m492.626 301.692-5.172-5.172c-24.991-24.992-65.599-25.999-91.754-1.772-1.788 1.656 2.807-2.9-44.684 44.592v-144.07c0-22.518-21.205-42.27-45.38-42.27h-18.62v-34h9.889c16.041 0 30.111-13.792 30.111-29.515v-58.062c0-14.833-12.877-31.423-30.111-31.423h-241.778c-17.234 0-30.111 16.59-30.111 31.423v58.062c0 15.723 14.07 29.515 30.111 29.515h7.889v34h-15.62c-23.4 0-47.38 19.284-47.38 42.27v272.71c0 22.216 23.469 44.02 47.38 44.02h258.24c6.441 0 12.978-1.554 19.045-4.462 24.146 9.282 51.888 3.83 70.646-14.927l97.3-97.3c25.81-25.811 25.81-67.808-.001-93.619zm-77.577 16.042c13.965-14.038 37.004-14.182 51.19.004l5.169 5.169c13.576 13.576 14.154 35.447 1.402 49.708-1.106 1.228 2.818-2.733-38.334 38.419l-56.364-56.364zm-224.033-228.734v-59h36.849v59zm-69.261 0v-59h39.261v59zm175.261-57.268v56.976c-.463.454 2.448.292-39.151.292v-59h37.955c.48.44 1.023 1.21 1.196 1.732zm-242 56.976v-56.976c.173-.521.716-1.292 1.196-1.732h35.543v59c-38.834 0-36.277.161-36.739-.292zm38 30.292h164v34h-164zm-63 348.98v-272.71c0-4.398 8.76-12.27 17.38-12.27h258.24c7.776 0 15.38 7.026 15.38 12.27v174.071l-24.479 24.48c-24.07 24.07-25.683 62.211-4.86 88.179h-244.281c-8.173 0-17.38-9.146-17.38-14.02zm344.098 3.418c-14.16 14.16-37.065 14.128-51.192 0l-5.172-5.172c-14.145-14.145-14.148-37.044 0-51.192 33.839-33.839 3.902-3.902 39.15-39.151l56.365 56.364z"/></g></svg>