<svg id="Capa_1" enable-background="new 0 0 512 512" height="512" viewBox="0 0 512 512" width="512" xmlns="http://www.w3.org/2000/svg"><g><path d="m448 482h-7.548c4.174-7.747 6.548-16.601 6.548-26v-160c0-9-2.187-17.493-6.035-25h7.035c8.284 0 15-6.716 15-15s-6.716-15-15-15h-25.343l.006-3.084 21.543-37.265c2.646-4.577 2.687-10.208.108-14.823l-21.497-38.48.083-43.175c.011-5.354-2.833-10.307-7.462-12.997l-37.144-21.592-21.401-37.338c-2.668-4.655-7.619-7.531-12.985-7.541l-42.775-.082-37.05-22.45c-4.762-2.885-10.731-2.895-15.503-.026l-37.119 22.32-42.771-.083c-5.505 0-10.391 2.951-13.017 7.494l-21.538 37.266-37.219 21.462c-4.637 2.674-7.497 7.616-7.506 12.969l-.073 43.176-21.626 38.399c-2.595 4.606-2.572 10.237.057 14.822l21.414 37.345-.009 3.683h-25.173c-8.284 0-15 6.716-15 15s6.716 15 15 15h7.035c-3.848 7.506-6.035 16-6.035 25v160c0 9.399 2.374 18.253 6.548 26h-7.548c-8.284 0-15 6.716-15 15s6.716 15 15 15h384c8.284 0 15-6.716 15-15s-6.716-15-15-15zm-330.601-323.943c1.262-2.239 1.926-4.765 1.931-7.335l.065-38.448 33.209-19.152c2.28-1.315 4.175-3.208 5.493-5.488l19.209-33.235 38.274.074c2.807 0 5.463-.764 7.759-2.145l32.94-19.807 32.876 19.921c2.336 1.416 5.014 2.166 7.745 2.171l38.277.073 19.088 33.302c1.31 2.285 3.198 4.186 5.476 5.509l33.142 19.266-.074 38.446c-.005 2.571.651 5.1 1.905 7.345l19.252 34.461-19.283 33.356c-2.481 4.291-2.014 7.545-2.027 14.628-16.352 0-258.916 0-273.483 0 .017-7.486.527-10.769-1.97-15.124l-19.17-33.432zm299.601 297.943c0 13.785-11.215 25-25 25h-272c-13.785 0-25-11.215-25-25v-160c0-12.627 9.413-23.092 21.589-24.761h278.823c12.175 1.669 21.588 12.133 21.588 24.761z"/><path d="m348 321h-184c-14.888 0-27 12.112-27 27v56c0 14.888 12.112 27 27 27h184c14.888 0 27-12.112 27-27v-56c0-14.888-12.113-27-27-27zm-3 80h-178v-50h178z"/></g></svg>