<svg id="Capa_1" enable-background="new 0 0 512 512" height="512" viewBox="0 0 512 512" width="512" xmlns="http://www.w3.org/2000/svg"><g><path d="m468 297h-224c-8.284 0-15 6.716-15 15s6.716 15 15 15h53.23c-18.878 16.603-43.274 26-69.23 26-57.897 0-105-47.103-105-105 0-52.805 39.184-96.623 90-103.924v27.924c0 14.888 12.112 27 27 27h5v37c0 14.888 12.112 27 27 27h40c14.888 0 27-12.112 27-27v-37h5c14.888 0 27-12.112 27-27v-145c0-14.888-12.112-27-27-27h-104c-14.888 0-27 12.112-27 27v22.562c-102.749 7.695-184 93.755-184 198.438 0 83.846 52.126 155.742 125.672 184.997l-10.741 49.003h-43.931c-8.284 0-15 6.716-15 15s6.716 15 15 15h256c8.284 0 15-6.716 15-15s-6.716-15-15-15h-43.931l-10.727-48.941c47.235-18.745 87.727-55.994 109.352-106.059h57.306c8.284 0 15-6.716 15-15s-6.716-15-15-15zm-159-64h-34v-34h34zm-66-203h98v139h-98zm38.356 452h-106.712l8.775-40.038c29.462 6.769 60.157 6.659 89.168.03zm-53.356-65c-93.187 0-169-75.813-169-169 0-88.131 67.814-160.71 154-168.327v34.165c-67.406 7.486-120 64.793-120 134.162 0 74.439 60.561 135 135 135 43.778 0 84.103-20.783 109.479-56h39.947c-28.973 54.602-86.538 90-149.426 90z"/></g></svg>