<svg id="Capa_1" enable-background="new 0 0 512.008 512.008" height="512" viewBox="0 0 512.008 512.008" width="512" xmlns="http://www.w3.org/2000/svg"><g><path d="m493.552 80.647c-11.856-11.856-28.215-18.292-44.776-18.44-.202-16.138-6.595-31.931-18.449-43.785-24.564-24.562-64.531-24.563-89.096 0-20.916 20.916-24.008 52.993-9.306 77.227l-235.292 236.282c-23.765-14.365-56.697-12.146-78.177 9.334-24.563 24.563-24.563 64.531 0 89.095 11.858 11.859 28.22 18.293 44.784 18.441.146 16.563 6.582 32.926 18.441 44.785 24.565 24.563 64.533 24.564 89.096 0 23.314-23.314 24.193-60.449 4.646-84.886l233.293-234.271c24.643 19.673 61.718 18.432 84.835-4.686 24.565-24.564 24.565-64.531.001-89.096zm-21.213 67.882c-12.854 12.854-34.718 12.952-47.671-.001-1.71-1.71-2.565-2.876-3.842-4.568-5.437-7.152-15.752-7.963-22.241-1.842-.282.267-255.106 256.065-256.004 257.133-5.622 6.642-4.381 16.812 2.771 21.89 16.912 12.014 18.488 36.955 4.213 51.231-12.867 12.867-33.803 12.866-46.67 0-9.164-9.164-12.205-24.127-7.397-36.387 4.757-12.184-7.358-24.169-19.44-19.441-12.261 4.809-27.224 1.766-36.388-7.397-20.356-20.357-6.738-56.334 23.835-56.334 9.138 0 17.602 3.433 23.835 9.666 5.778 5.777 15.265 5.948 21.235-.022 271.94-273.087 255.146-255.584 256.842-259.207 2.755-5.926 1.304-12.667-2.974-16.945-12.866-12.867-12.866-33.803 0-46.669 12.867-12.867 33.803-12.867 46.67 0 9.283 9.283 12.187 23.173 7.396 35.387-1.311 3.328-1.411 7.352.001 10.954 3.001 7.685 11.776 11.496 19.44 8.487 12.262-4.809 27.223-1.767 36.388 7.397 12.867 12.867 12.867 33.802.001 46.668z"/><path d="m165.606 185.147c5.857 5.858 15.355 5.858 21.213 0 5.858-5.857 5.858-15.355 0-21.213l-50.911-50.912c-5.857-5.858-15.355-5.857-21.213 0s-5.858 15.355 0 21.213z"/><path d="m56.004 239.038h72c8.284 0 15-6.716 15-15s-6.716-15-15-15h-72c-8.284 0-15 6.716-15 15s6.716 15 15 15z"/><path d="m225.71 141.333c8.284 0 15-6.716 15-15v-72c0-8.284-6.716-15-15-15s-15 6.716-15 15v72c0 8.284 6.716 15 15 15z"/><path d="m348.108 326.929c-5.857-5.858-15.355-5.858-21.213 0s-5.858 15.355 0 21.213l50.912 50.912c2.929 2.929 6.768 4.394 10.606 4.394 13.244 0 20.083-16.131 10.606-25.606z"/><path d="m457.71 273.038h-72c-8.284 0-15 6.716-15 15s6.716 15 15 15h72c8.284 0 15-6.716 15-15s-6.716-15-15-15z"/><path d="m288.004 370.744c-8.284 0-15 6.716-15 15v72c0 8.284 6.716 15 15 15s15-6.716 15-15v-72c0-8.284-6.716-15-15-15z"/></g></svg>