<svg id="Capa_1" enable-background="new 0 0 512 512" height="512" viewBox="0 0 512 512" width="512" xmlns="http://www.w3.org/2000/svg"><g><path d="m511.971 171.42c-2.328-116.241-144.268-202.076-255.971-104.427-54.438-47.592-119.78-54.505-176.064-24.397-46.375 25.37-78.81 74.027-79.907 128.824-.854 42.637 17.219 83.688 52.264 118.716l193.095 193c5.861 5.858 15.363 5.858 21.224 0l193.095-193c35.046-35.027 53.118-76.079 52.264-118.716zm-266.583-73.284c5.86 5.857 15.363 5.857 21.224 0 95.631-95.587 217.269-17.356 215.339 78.394h-247.321l-111.888-118.564c37.635-9.338 82.03-.427 122.646 40.17zm216.175 142.394h-166.536l-32.086-34h214.341c-3.419 11.627-8.679 23.012-15.719 34zm-83.114 88.398-55.111-58.398h113.538zm-328-88.398c-7.232-11.305-12.361-22.708-15.652-34h81.261l32.085 34zm-9.823-113.935 47.122 49.934h-57.574c-.341-17.743 3.524-34.689 10.452-49.934zm16.864-25.852c13.201-16.128 24.301-24.656 35.268-30.828l263.972 279.719-33.124 33.108zm198.51 350.574-180.876-180.787h101.33l126.406 133.95z"/></g></svg>