<svg id="Capa_1" enable-background="new 0 0 512 512" height="512" viewBox="0 0 512 512" width="512" xmlns="http://www.w3.org/2000/svg"><g><path d="m456.727 29.645h-20.636v-14.645c0-8.284-6.716-15-15-15s-15 6.716-15 15v58.291c0 8.284 6.716 15 15 15s15-6.716 15-15v-13.646c22.069 0 20.712-.017 20.909.031v147.292c0 49.445-43.443 90.326-97.538 90.021-53.189-.26-96.462-40.643-96.462-90.021v-147.292c.195-.048-1.271-.031 20.909-.031v13.646c0 8.284 6.716 15 15 15s15-6.716 15-15v-58.291c0-8.284-6.716-15-15-15s-15 6.716-15 15v14.645h-20.636c-16.692 0-30.273 13.154-30.273 29.323v148c0 50.875 33.838 94.578 81.353 111.976-1.763 5.76-1.353 8.659-1.353 25.056 0 20.472 13.161 37.918 31.463 44.349-5.031 59.161-44.022 93.651-80.463 93.651-43.907 0-81-41.979-81-91.668v-214.623c0-14.693-7.73-31.496-19.996-40.863-11.692-8.929-26.964-13.846-43.004-13.846-33.561 0-63 25.701-63 55v131.469c-18.58 6.276-32 23.86-32 44.531 0 25.916 21.084 47 47 47s47-21.084 47-47c0-20.671-13.42-38.255-32-44.531v-131.469c0-11.324 14.72-25 33-25 9.36 0 18.397 2.802 24.796 7.688 4.524 3.455 8.204 11.221 8.204 17.312v214.332c0 64.536 48.166 121.668 111 121.668 53.213 0 105.075-47.87 110.536-123.312 18.821-6.137 32.464-23.845 32.464-44.688 0-16.592.386-19.353-1.345-25.027 47.537-17.369 81.345-61.023 81.345-112.005v-148c0-16.169-13.581-29.323-30.273-29.323zm-384.727 339.355c-9.374 0-17-7.626-17-17s7.626-17 17-17 17 7.626 17 17-7.626 17-17 17zm304-42c.514 0 1 .486 1 1v16c0 9.374-7.626 17-17 17s-17-7.626-17-17v-16c0-.514.486-1 1-1z"/></g></svg>