<svg id="Capa_1" enable-background="new 0 0 512.049 512.049" height="512" viewBox="0 0 512.049 512.049" width="512" xmlns="http://www.w3.org/2000/svg"><g><path d="m176.024 224.999c-8.284 0-15 6.716-15 15v16c0 8.284 6.716 15 15 15s15-6.716 15-15v-16c0-8.284-6.715-15-15-15z"/><path d="m336.024 224.999c-8.284 0-15 6.716-15 15v16c0 8.284 6.716 15 15 15s15-6.716 15-15v-16c0-8.284-6.715-15-15-15z"/><path d="m432.82 200.297c-2.935-5.479-7.017-12.875-8.035-15.05-2.178-6.646-4.703-13.184-7.532-19.582 11.629-11.176 20.778-25.248 26.254-40.64 8.114-22.816 11.439-48.321 9.121-69.974-2.924-27.315-14.621-45.948-32.936-52.464-34.994-12.447-88.856 22.052-110.046 60.061-12.287-3.74-24.89-5.649-37.621-5.649h-32c-12.731 0-25.334 1.909-37.621 5.649-9.521-17.078-24.844-33.044-43.657-45.16-24.486-15.77-48.683-21.198-66.391-14.901-18.314 6.517-30.011 25.149-32.935 52.464-2.318 21.653 1.006 47.158 9.121 69.976 5.476 15.39 14.623 29.46 26.252 40.636-2.829 6.399-5.354 12.938-7.53 19.583-1.03 2.2-5.076 9.525-8.035 15.05-39.587 28.258-62.204 73.649-62.204 125.162 0 101.289 92.217 179.345 192 145.645v14.055c0 15.33 10.876 26.89 25.3 26.89h43.4c14.423 0 25.3-11.56 25.3-26.89v-14.055c99.679 33.664 192-44.265 192-145.645-.001-51.512-22.617-96.903-62.205-125.161zm-23.184-169.445c14.194 5.05 19.569 44.859 5.606 84.119-2.951 8.294-7.38 16.034-12.914 22.75-16.091-25.409-38.104-48.23-64.893-63.174 19.239-31.274 58.415-48.603 72.201-43.695zm-137.612 56.147c3.039 0 6.039.143 9.002.41.003 17.934.018 31.589-.057 33.286-.859 14.895-11.816 26.563-24.945 26.563-13.785 0-25-12.763-25-28.45v-31.4c6.061-.546 6.366-.409 41-.409zm-175.217 27.974c-13.963-39.262-8.589-79.071 5.605-84.121 13.801-4.909 52.993 12.471 72.201 43.695-26.211 14.622-48.383 37.104-64.894 63.173-5.532-6.715-9.961-14.455-12.912-22.747zm159.217 275.485-23.729-47.459h47.459zm17 91.591h-34v-24.988c6.002-3.695 11.698-7.809 17-12.323 5.302 4.514 10.998 8.628 17 12.323zm77.741-33.05c-28.189 0-56.085-10.194-76.427-28.085l43.103-86.207c4.977-9.954-2.269-21.708-13.417-21.708h-96c-11.129 0-18.402 11.738-13.417 21.708l43.103 86.207c-19.738 17.359-47.454 28.085-76.427 28.085-63.003 0-114.26-55.42-114.26-123.54 0-42.736 19.008-80.093 52.149-102.492 2.054-1.388 3.731-3.263 4.883-5.458 5.345-10.184 10.239-18.422 11.574-22.484 12.829-39.485 42.498-81.249 82.873-99.094.834-.226 1.662-.512 2.471-.891.1-.047.05-1.569.05 23.77 0 32.229 24.673 58.45 55 58.45 29.01 0 53.123-24.087 54.893-54.791.219-3.601.022-27.492.157-27.429.809.379 1.636.665 2.469.891 40.377 17.847 70.05 59.62 82.89 99.141 1.306 3.975 6.308 12.434 11.558 22.438 1.151 2.195 2.829 4.07 4.883 5.458 33.142 22.399 52.149 59.756 52.149 102.492.002 68.119-51.254 123.539-114.257 123.539z"/></g></svg>