<svg id="Capa_1" enable-background="new 0 0 512.096 512.096" height="512" viewBox="0 0 512.096 512.096" width="512" xmlns="http://www.w3.org/2000/svg"><g><path d="m462.866 245.86c-1.497-43.854-12.743-80.336-33.528-108.953l48.551-116.064c5.142-12.289-7.162-24.698-19.495-19.681-85.976 35.009-80.688 32.853-80.971 32.977-24.282 10.657-71.796 31.481-76.848 33.716-27.781-3.689-60.487-3.792-89.047 0-3.161-1.4-52.778-23.152-76.848-33.716-.309-.136 5.005 2.032-80.972-32.977-12.365-5.032-24.624 7.421-19.495 19.681l48.552 116.063c-20.785 28.617-32.031 65.1-33.529 108.954-77.514 69.78-60.153 162.46 28.564 218.835 99.399 63.16 257.046 63.197 356.501 0 89.444-56.836 105.51-149.566 28.565-218.835zm-26.578-203.304-29.223 69.86c-16.818-14.886-36.291-25.66-57.736-33.192 50.66-22.213 30.127-13.526 86.959-36.668zm-273.513 36.668c-21.444 7.532-40.918 18.306-57.736 33.192l-29.224-69.86c56.77 23.116 36.345 14.473 86.96 36.668zm-93.428 341.739 72.613-31.121c7.614-3.264 11.142-12.082 7.878-19.696-3.263-7.614-12.079-11.142-19.696-7.878l-82.03 35.157c-17.052-24.202-23.314-52.56-13.197-80.887l99.573 10.435c8.217.86 15.616-5.095 16.482-13.355.863-8.239-5.116-15.618-13.355-16.482l-86.821-9.099c7.188-9.37 15.348-17.338 22.954-23.747 3.337-2.812 5.285-6.939 5.333-11.303 1.462-130.534 97.044-157.934 176.97-157.934 79.927 0 175.509 27.4 176.97 157.934.049 4.364 1.996 8.49 5.333 11.303 7.606 6.409 15.766 14.377 22.954 23.747l-86.82 9.099c-8.239.864-14.219 8.243-13.354 16.482.864 8.248 8.251 14.217 16.481 13.355l99.573-10.435c10.119 28.332 3.853 56.689-13.197 80.887l-82.03-35.157c-7.613-3.263-16.433.263-19.696 7.878s.264 16.433 7.878 19.696l72.613 31.121c-91.519 81.666-282.411 81.202-373.409 0z"/><path d="m191.051 242.571v-17.797c0-8.284-6.716-15-15-15s-15 6.716-15 15v17.797c0 8.284 6.716 15 15 15s15-6.716 15-15z"/><path d="m336.051 209.774c-8.284 0-15 6.716-15 15v17.797c0 8.284 6.716 15 15 15s15-6.716 15-15v-17.797c0-8.285-6.716-15-15-15z"/><path d="m312.051 369.055c-8.284 0-15 6.716-15 15 0 7.168-5.832 13-13 13s-13-5.832-13-13v-33.011l26.831-22.542c28.855-24.241 13.57-71.447-25.831-71.447h-32.098c-39.17 0-54.667 47.139-25.733 71.447l26.831 22.542v33.011c0 7.168-5.832 13-13 13s-13-5.832-13-13c0-8.284-6.716-15-15-15s-15 6.716-15 15c0 23.71 19.29 43 43 43 10.688 0 20.47-3.929 28-10.406 7.53 6.478 17.312 10.406 28 10.406 23.71 0 43-19.29 43-43 0-8.284-6.716-15-15-15zm-82.123-75.664c.862-2.367 3.324-6.336 10.123-6.336h32c6.798 0 9.256 3.958 10.115 6.318 1.233 3.387.941 8.36-3.581 12.16l-22.534 18.931-22.533-18.931c-4.523-3.801-4.82-8.764-3.59-12.142z"/></g></svg>