<svg id="Capa_1" enable-background="new 0 0 512.004 512.004" height="512" viewBox="0 0 512.004 512.004" width="512" xmlns="http://www.w3.org/2000/svg"><g><path d="m388.002 89.004h-13v-60.31c0-19.765-18.046-33.664-36.198-27.009-.244.09-194.838 76.772-225.333 89.749-10.553 4.491-16.469 14.064-16.469 24.571v369c0 14.912 12.088 27 27 27h264c14.912 0 27-12.088 27-27v-369c0-14.912-12.088-27.001-27-27.001zm-43-57.521v57.522h-146.004zm40 450.521h-258v-363h258z"/><path d="m208.002 183.004h96c8.284 0 15-6.716 15-15s-6.716-15-15-15h-96c-8.284 0-15 6.716-15 15s6.716 15 15 15z"/><path d="m328.002 417.004h-144c-8.284 0-15 6.716-15 15s6.716 15 15 15h144c8.284 0 15-6.716 15-15s-6.716-15-15-15z"/><path d="m193.292 270.934c1.677 8.081 9.315 13.338 17.64 11.78 8.169-1.704 13.323-9.398 11.78-17.64-1.835-8.801-10.585-13.944-19.07-11.42-7.902 2.575-11.718 10.011-10.35 17.28z"/><path d="m241.652 252.364c2.768 8.493 11.258 12.257 18.7 9.99 8.443-2.694 12.261-11.152 10-18.71-2.963-9.12-12.502-12.691-20.09-9.49-7.088 2.994-10.853 10.688-8.61 18.21z"/><path d="m316.472 276.334c4.581-6.942 2.768-16.134-4.14-20.8-7.76-5.109-17.655-2.057-21.55 5.41-3.99 7.443-.981 16.544 6.159 20.28 6.946 3.709 15.285 1.413 19.531-4.89z"/><path d="m196.773 335.807v2.145c0 21.958 20.992 37.809 42.119 31.77.673 0 15.271-5.414 34.221 0 21.072 6.02 42.118-9.759 42.118-31.77v-2.145c0-32.659-26.569-59.229-59.229-59.229s-59.229 26.57-59.229 59.229zm30 0c0-16.117 13.112-29.229 29.229-29.229 16.116 0 29.229 13.112 29.229 29.229 0 2.073.263 3.462-1.21 4.573-.553.417-1.465.84-2.666.496-16.585-4.738-34.118-4.739-50.704 0-1.951.558-3.877-.893-3.877-2.925v-2.144z"/></g></svg>