<svg id="Capa_1" enable-background="new 0 0 512 512" height="512" viewBox="0 0 512 512" width="512" xmlns="http://www.w3.org/2000/svg"><g><path d="m316.079 226.218-26.515 11.392c-16.338-19.527-34.256-29.142-53.366-28.589-35.251 1.013-58.237 37.534-59.198 39.088-3.155 5.1-2.969 11.589.474 16.5 17.864 25.484 37.803 38.391 59.295 38.391 20.934 0 39.267-12.647 52.862-28.583l26.449 11.364c9.854 4.236 20.92-2.99 20.92-13.781v-32c0-10.754-11.022-18.034-20.921-13.782zm-78.703 46.775c-11.379.274-21.418-8.415-28.779-17.07 6.664-7.539 17.269-16.592 28.463-16.914 9.282-.257 18.989 5.463 28.857 17.063-6.731 7.637-17.317 16.639-28.541 16.921z"/><path d="m399.614 430.982 8.7-38.281c20.324-89.431 20.324-183.971 0-273.402l-8.7-38.281 22.457-60.822c3.612-9.784-3.635-20.196-14.071-20.196h-304c-10.429 0-17.686 10.406-14.071 20.196l22.457 60.822-8.7 38.281c-20.324 89.431-20.324 183.971 0 273.402l8.7 38.281-22.457 60.822c-3.612 9.783 3.635 20.196 14.071 20.196h304c10.429 0 17.686-10.406 14.071-20.196zm-29.685 6.214 16.543 44.804h-51.472v-17c0-8.284-6.716-15-15-15s-15 6.716-15 15v17h-34v-17c0-8.284-6.716-15-15-15s-15 6.716-15 15v17h-34v-17c0-8.284-6.716-15-15-15s-15 6.716-15 15v17h-51.472l16.543-44.804c1.007-2.727 1.2-5.687.556-8.521l-9.688-42.623c-19.336-85.081-19.336-175.024 0-260.104l9.688-42.624c.645-2.833.451-5.793-.556-8.52l-16.543-44.804h51.472v17c0 8.284 6.716 15 15 15s15-6.716 15-15v-17h34v17c0 8.284 6.716 15 15 15s15-6.716 15-15v-17h34v17c0 8.284 6.716 15 15 15s15-6.716 15-15v-17h51.472l-16.543 44.804c-1.007 2.727-1.2 5.687-.556 8.52l9.688 42.624c19.336 85.081 19.336 175.024 0 260.105l-9.688 42.623c-.644 2.833-.451 5.793.556 8.52z"/><path d="m320 353h-128c-8.284 0-15 6.716-15 15s6.716 15 15 15h128c8.284 0 15-6.716 15-15s-6.716-15-15-15z"/><path d="m192 159h128c8.284 0 15-6.716 15-15s-6.716-15-15-15h-128c-8.284 0-15 6.716-15 15s6.716 15 15 15z"/></g></svg>