<svg id="Capa_1" enable-background="new 0 0 512.027 512.027" height="512" viewBox="0 0 512.027 512.027" width="512" xmlns="http://www.w3.org/2000/svg"><g><path d="m497.014 57.013h-482c-10.788 0-18.063 11.084-13.754 20.987l119.754 275.137v77.13c0 13.646 11.775 24.746 26.25 24.746h217.5c14.475 0 26.25-11.101 26.25-24.746v-77.13l119.754-275.137c4.304-9.893-2.955-20.987-13.754-20.987zm-362.405 30 120 248h-108.765l-107.942-248zm226.405 338h-210v-60h210zm5.17-90h-78.248l-30.968-64h31.046c8.284 0 15-6.716 15-15s-6.716-15-15-15h-45.563l-16.452-34h30.014c8.284 0 15-6.716 15-15s-6.716-15-15-15h-44.53l-16.452-34h28.982c8.284 0 15-6.716 15-15s-6.716-15-15-15h-43.498l-12.581-26h306.191z"/></g></svg>