<svg id="Capa_1" enable-background="new 0 0 512 512" height="512" viewBox="0 0 512 512" width="512" xmlns="http://www.w3.org/2000/svg"><g><path d="m250.854 396.371-41.569-24c-4.563-2.635-10.175-2.681-14.78-.125l-1.021.567-28.18-70.438c24.46-26.358 17.593-68.985-14.72-86.04l64.531-179.253c2.806-7.795-1.238-16.388-9.032-19.194-7.799-2.808-16.389 1.238-19.194 9.032l-62.415 173.37-69.547-173.859c-3.076-7.691-11.803-11.432-19.498-8.356-7.691 3.077-11.433 11.807-8.355 19.499l71.653 179.122c-32.869 17.95-38.507 62.261-11.811 87.93l-24.708 68.618c-4.596-2.252-10.035-2.015-14.42.666l-40.613 24.833c-4.457 2.726-7.175 7.573-7.175 12.797v46.647c0 5.541 3.055 10.63 7.944 13.237l40.923 21.814c4.664 2.486 10.292 2.335 14.816-.4l41.077-24.833c4.509-2.726 7.257-7.618 7.239-12.886l-.155-46.647c-.019-5.54-3.089-10.619-7.985-13.209l-14.863-7.863 24.692-68.573c8.193 1.72 16.947 1.612 25.598-.718l27.758 69.382-13.323 7.396c-4.844 2.689-7.811 7.828-7.718 13.367l.784 46.641c.089 5.269 2.935 10.104 7.498 12.738l41.569 24c4.492 2.594 10.104 2.721 14.78.125l40.785-22.641c4.844-2.689 7.811-7.828 7.718-13.367l-.785-46.641c-.089-5.268-2.936-10.104-7.498-12.738zm-195.397 66.385-25.457-13.57v-29.236l26.148-15.989 25.727 13.61.097 29.155zm44.543-197.754c0-13.785 11.215-25 25-25s25 11.215 25 25-11.215 25-25 25-25-11.214-25-25zm103.499 196.405-26.859-15.507-.49-29.15 25.49-14.151 26.859 15.507.49 29.15z"/><path d="m467 17.002c-26.09 0-80.75 0-96 0-8.284 0-15 6.716-15 15s6.716 15 15 15h33v34h-33c-8.284 0-15 6.716-15 15s6.716 15 15 15h33v34h-33c-8.284 0-15 6.716-15 15s6.716 15 15 15h33v34h-33c-8.284 0-15 6.716-15 15s6.716 15 15 15h33v34h-33c-8.284 0-15 6.716-15 15s6.716 15 15 15h33v34h-33c-8.284 0-15 6.716-15 15s6.716 15 15 15h33v34h-33c-8.284 0-15 6.716-15 15s6.716 15 15 15h33v34h-33c-8.284 0-15 6.716-15 15s6.716 15 15 15h96c24.813 0 45-20.187 45-45v-388c0-24.813-20.187-45-45-45zm15 433c0 8.271-6.729 15-15 15h-33v-418h33c8.271 0 15 6.729 15 15z"/></g></svg>