<svg id="Capa_1" enable-background="new 0 0 512 512" height="512" viewBox="0 0 512 512" width="512" xmlns="http://www.w3.org/2000/svg"><g><path d="m483.5 240.5h-85.225c9.913-116.613-82.359-216-198.275-216-110.28 0-200 89.271-200 199 0 79.374 47.188 148.361 115.258 180.158l-24.716 50.218c-1.015 2.061-1.542 4.327-1.542 6.624 0 14.888 12.112 27 27 27h168c14.888 0 27-12.112 27-27 0-2.297-.527-4.563-1.542-6.624l-24.752-50.292c26.667-12.604 49.994-30.91 68.429-53.084h63.865v106h-9c-8.284 0-15 6.716-15 15s6.716 15 15 15h48c8.284 0 15-6.716 15-15s-6.716-15-15-15h-9v-106h36.5c15.71 0 28.5-12.71 28.5-28.33v-53.34c0-15.62-12.79-28.33-28.5-28.33zm-205.694 217h-155.612l21.24-43.154c37.123 10.969 76.869 10.784 113.135.006zm-18.023-75.835c-.513.16-1.021.351-1.525.57-37.16 13.598-78.879 13.847-116.945-.186-.237-.095-.474-.183-.713-.264-66.169-24.713-110.6-88.27-110.6-158.285 0-93.187 76.262-169 170-169 99.403 0 178.168 86.007 168.142 186h-42.291c10.253-76.425-49.328-144-125.851-144-70.028 0-127 56.972-127 127 0 69.595 56.356 127 127 127h111.505c-15.324 13.526-32.823 24.039-51.722 31.165zm-155.289-141.165c-10.534-59.49 35.32-114 95.506-114 60.152 0 106.046 54.473 95.506 114zm377.506 80c-18.192 0-269.308 0-282 0-35.508 0-67.96-19.792-84.82-50h366.82z"/></g></svg>