<svg id="Capa_1" enable-background="new 0 0 512.013 512.013" height="512" viewBox="0 0 512.013 512.013" width="512" xmlns="http://www.w3.org/2000/svg"><g><path d="m510.073 307.187c.991-1.759 1.609-3.675 1.835-5.675.139-1.239.1 2.916.1-73.68 0-2.962-.896-5.809-2.43-8.169-1.3-1.997 6.248 5.936-122.86-125.729-2.821-2.877-6.681-4.498-10.71-4.498h-9v-41.256c0-14.888-12.112-27-27-27h-168c-14.888 0-27 12.112-27 27v41.256h-9c-4.029 0-7.889 1.621-10.71 4.498-129.24 131.799-121.447 123.68-122.602 125.342-1.76 2.527-2.634 5.425-2.678 8.342-.007.547-.06 72.231.056 73.541.176 1.998.733 3.877 1.645 5.619.7 1.336-7.353-10.492 121.927 177.552 2.798 4.07 7.421 6.502 12.361 6.502h240c4.939 0 9.562-2.432 12.361-6.502 128.906-187.499 121.149-176.156 121.705-177.143zm-480.066-64.355h452v42h-452zm145-191.652h162v38.256h-162zm-32.7 68.256h227.401l91.583 93.396h-410.567zm225.81 341.396h-224.219l-100.375-146h424.969z"/><path d="m176.007 418.832c8.284 0 15-6.716 15-15v-40c0-8.284-6.716-15-15-15s-15 6.716-15 15v40c0 8.285 6.716 15 15 15z"/><path d="m208.338 151.36c-7.486-4.928-17.385-2.376-21.55 5.41-6.051 11.319 4.052 24.293 16.15 21.77 13.242-2.755 16.35-19.786 5.4-27.18z"/><path d="m256.007 418.832c8.284 0 15-6.716 15-15v-40c0-8.284-6.716-15-15-15s-15 6.716-15 15v40c0 8.285 6.716 15 15 15z"/><path d="m336.007 418.832c8.284 0 15-6.716 15-15v-40c0-8.284-6.716-15-15-15s-15 6.716-15 15v40c0 8.285 6.716 15 15 15z"/><path d="m326.717 160.9c-1.887-9.047-11.023-13.975-19.07-11.41-7.719 2.352-12.427 10.527-9.99 18.7 2.794 8.574 11.243 12.211 18.71 9.99 7.063-2.152 11.848-9.278 10.35-17.28z"/></g></svg>