<svg id="Capa_1" enable-background="new 0 0 512 512" height="512" viewBox="0 0 512 512" width="512" xmlns="http://www.w3.org/2000/svg"><g><path d="m479.861 251.672h-57v-77.022c0-95.997-76.877-174.65-169.279-174.65h-105.91c-15.063 0-27.79 13.354-27.79 29.16v33.249h-42.538c-33.73 0-60.205 36.657-60.205 70.092v20.024c0 10.387 8.409 18.838 18.746 18.838h13.339c1.758 37.508 32.753 67.495 70.658 67.63v4.346c0 77.036 49.979 144.534 120.979 166.402v72.259h-25c-8.284 0-15 6.716-15 15s6.716 15 15 15h144c8.284 0 15-6.716 15-15s-6.716-15-15-15h-25v-53.026c15.758-.68 31.244-3.479 46.138-8.357 75.693-24.828 113.862-71.702 113.862-153.944 0-8.285-6.715-15.001-15-15.001zm-432.722-119.171c0-17.506 14.647-40.092 30.205-40.092h42.538v48.593c-3.439.541.976.361-72.743.361zm32.149 38.862c40.317 0 37.168.068 40.594-.192v37.822c-21.358-.132-38.883-16.675-40.594-37.63zm70.594 71.977v-213.34h103.7c77.601 0 139.279 66.163 139.279 144.65v77.022h-105.864c-60.367 0-96.312 55.004-83.774 104.42-32.689-26.706-53.341-67.972-53.341-112.752zm120.979 238.66v-62.308c13.003 4.506 22.841 6.339 34 8.09v54.218zm100.794-89.891c-18.205 5.963-32.562 7.111-51.794 7.111-1.74 0-3.233-.071-6.086-.44-19.959-2.569-37.229-7.376-54.91-17.155-26.784-14.814-31.129-40.232-26.265-59.08 4.867-18.855 22.034-40.873 54.396-40.873h177.354c-4.054 57.231-32.45 90.675-92.695 110.437z"/><path d="m279.139 112c0-25.916-21.084-47-47-47s-47 21.084-47 47 21.084 47 47 47 47-21.084 47-47zm-64 0c0-9.374 7.626-17 17-17s17 7.626 17 17-7.626 17-17 17-17-7.626-17-17z"/></g></svg>