<svg id="Capa_1" enable-background="new 0 0 511.885 511.885" height="512" viewBox="0 0 511.885 511.885" width="512" xmlns="http://www.w3.org/2000/svg"><g><path d="m478.495 111.292c12.595-66.099 11.78-61.221 11.78-63.238 0-17.413-14.212-31.58-31.68-31.58h-405.319c-17.468 0-31.68 14.167-31.68 31.58 0 2.019-.82-2.889 11.78 63.238-70.152 126.124-24.602 273.814 88.849 344.66 80.9 51.004 180.837 54.331 268.053-.393 113.369-71.133 158.086-218.652 88.217-344.267zm-425.219-64.818h405.32c.66 0 1.261.402 1.529.951l-5.651 29.656c-27.037 6.954-88.431 18.607-121.634 7.118-49.765-17.219-98.664-2.347-105.154-.22-16.902 4.304-65.276 12.469-93.999.542-29.776-12.365-58.661-8.309-75.595-3.789l-6.346-33.307c.269-.549.869-.951 1.53-.951zm105.865 395.733c62.128-36.274 132.806-37.53 194.584-.499-62.73 31.19-130.814 31.936-194.584.499zm223.483-17.526c-79.044-54.397-173.398-52.934-252.683.463-94.814-65.058-132.126-193.499-67.84-303.67 1.825-3.128 2.458-6.811 1.779-10.368l-.16-.841c11.919-3.508 35.02-7.771 58.464 1.962 15.386 6.389 33.494 8.494 50.68 8.493 27.753 0 58.19-6.199 63.943-8.159.434-.147 43.959-14.636 86.224-.012 37.715 13.052 95.259 3.428 125.296-3.203l-.335 1.76c-.679 3.557-.046 7.24 1.779 10.368 62.757 107.552 30.004 236.315-67.147 303.207z"/><path d="m390.071 266.384-26.234 11.7c-16.305-20.181-34.228-30.123-53.397-29.59-34.846.986-56.98 36.477-59.39 40.52-2.976 4.993-2.798 11.255.454 16.072 17.852 26.435 37.842 39.825 59.445 39.825 21.284 0 39.618-13.057 53.044-29.541l26.077 11.63c9.852 4.396 21.109-2.797 21.109-13.699v-33.218c.001-10.853-11.197-18.118-21.108-13.699zm-78.484 48.519c-10.887.325-21.164-8.54-29.102-18.315 6.704-8.054 17.484-17.823 28.873-18.106 10.922-.292 21.113 8.567 29.033 18.32-6.636 7.947-17.444 17.779-28.804 18.101z"/><path d="m254.936 175.474c0-13.177-15.839-20.083-25.61-10.61-8.889 8.922-3.503 24.228 9.13 25.54 8.557.878 16.48-5.893 16.48-14.93z"/><path d="m281.226 203.324c1.804 8.515 9.972 13.371 17.64 11.77 8.529-1.768 13.367-9.948 11.771-17.64-1.626-8.418-10.295-14.025-19.061-11.41-7.113 2.167-11.84 9.319-10.35 17.28z"/><path d="m175.936 183.474c-8.823 0-16 7.178-16 16s7.177 16 16 16 16-7.178 16-16-7.178-16-16-16z"/></g></svg>