<svg id="Capa_1" enable-background="new 0 0 511.99 511.99" height="512" viewBox="0 0 511.99 511.99" width="512" xmlns="http://www.w3.org/2000/svg"><g><path d="m477.707 424.99-82.773-143.372c22.305-29.374 35.563-65.975 35.563-105.618 0-97.047-78.505-176-175-176s-175 78.953-175 176c0 39.979 13.485 76.862 36.133 106.361l-82.343 142.629c-6.588 11.409 3.41 25.244 16.296 22.64 2.447-.551-14.944 3.161 68.154-14.415l21.684 68.177c4.052 12.665 21.264 14.41 27.807 2.892 91.677-160.559 87.258-153.288 88.01-153.293l87.53 153.298c6.636 11.6 23.883 9.641 27.843-3.021l21.646-68.052 68.038 14.391c13.195 2.638 22.937-11.327 16.412-22.617zm-222.21-394.99c79.953 0 145 65.495 145 146 0 79.953-65.047 145-145 145s-145-65.047-145-145c0-80.505 65.047-146 145-146zm-96.678 430.259-15.607-49.074c-2.337-7.346-9.857-11.717-17.398-10.13l-49.058 10.376 61.155-105.93c23.445 21.307 52.682 36.339 85.033 42.45zm227.362-59.204c-7.548-1.594-15.062 2.785-17.397 10.129l-15.61 49.075-64.224-112.48c32.295-6.277 61.446-21.457 84.783-42.882l61.506 106.534z"/><path d="m208.977 158.93c12.476-1.293 18.095-16.344 9.13-25.54-6.673-6.487-16.806-5.511-22.21 1.1-8.469 10.418-.072 25.75 13.08 24.44z"/><path d="m240.787 126.93c1.693 8.165 9.403 13.324 17.64 11.78 8.519-1.783 13.37-9.925 11.771-17.641-1.597-8.434-10.405-14.045-19.051-11.42-7.763 2.486-11.75 9.862-10.36 17.281z"/><path d="m304.977 158.93c12.476-1.293 18.095-16.344 9.13-25.54-6.673-6.487-16.806-5.511-22.21 1.1-8.469 10.418-.072 25.75 13.08 24.44z"/><path d="m255.497 152.573c-32.659 0-59.229 26.569-59.229 59.229v2.146c0 21.956 20.991 37.812 42.118 31.771 11.193-3.199 23.027-3.197 34.221 0 21.121 6.035 42.118-9.809 42.118-31.771v-2.146c.001-32.659-26.569-59.229-59.228-59.229zm29.229 61.374c0 2.036-1.935 3.485-3.876 2.925-16.586-4.738-34.119-4.738-50.705 0-1.204.344-2.121-.072-2.666-.496-1.224-.954-1.21-2.335-1.21-4.574 0-16.116 13.112-29.229 29.229-29.229s29.229 13.112 29.229 29.229v2.145z"/></g></svg>