<svg id="Capa_1" enable-background="new 0 0 512.004 512.004" height="512" viewBox="0 0 512.004 512.004" width="512" xmlns="http://www.w3.org/2000/svg"><g><path d="m432.002 129.004h-97v-36.469c32.822-11.086 42.844-52.595 18.456-78.039-25.206-26.294-67.102-14.853-78.051 18.508h-195.405c-8.284 0-15 6.716-15 15v449c0 8.284 6.716 15 15 15s15-6.716 15-15v-434h180.469c4.684 13.866 15.665 24.848 29.531 29.531v36.469h-97c-8.284 0-15 6.716-15 15v165.364c0 15.238 4.563 29.932 13.196 42.489l4.562 6.637c13.534 19.685 36.149 32.51 62.241 32.51v17c0 20.671 13.42 38.255 32 44.531v44.469c0 8.284 6.716 15 15 15s15-6.716 15-15v-44.469c18.58-6.276 32-23.86 32-44.531v-17c27.305 0 49.908-13.321 63.292-33.397l4.111-6.166c8.241-12.359 12.597-26.746 12.597-41.604 0-20.123 0-146.855 0-165.833.001-8.284-6.715-15-14.999-15zm-112-99c9.056 0 17 8.411 17 18 0 9.374-7.626 17-17 17s-17-7.626-17-17c0-9.589 7.944-18 17-18zm-97 129h194v106h-194zm114 249c0 9.374-7.626 17-17 17s-17-7.626-17-17v-17h34zm80-98.167c0 8.915-2.613 17.546-7.558 24.962l-4.111 6.167c-8.365 12.547-22.362 20.038-37.442 20.038-59.595 0-36.25 0-95.327 0-14.822 0-28.685-7.292-37.081-19.505l-4.562-6.637c-5.181-7.535-7.919-16.351-7.919-25.494v-14.364h194z"/></g></svg>