<svg id="Capa_1" enable-background="new 0 0 512 512" height="512" viewBox="0 0 512 512" width="512" xmlns="http://www.w3.org/2000/svg"><g><path d="m473.807 259h23.193c8.284 0 15-6.716 15-15s-6.716-15-15-15h-27.526c-6.181-30.974-31.034-60.193-63.096-63.657 5.789-43.404-28.958-81.79-72.798-80.302-7.011-36.433-39.132-64.041-77.58-64.041s-70.569 27.608-77.58 64.041c-43.922-1.491-78.576 36.981-72.798 80.302-32.041 3.462-56.91 32.656-63.096 63.657h-27.526c-8.284 0-15 6.716-15 15s6.716 15 15 15h23.193l-36.975 214.451c-1.581 9.168 5.49 17.549 14.782 17.549h480c9.304 0 16.361-8.393 14.782-17.549zm-361.807-64c3.547 0 7.081.458 10.502 1.361 12.577 3.324 23.141-9.915 17.128-21.441-3.072-5.889-4.63-12.255-4.63-18.92 0-27.287 26.378-47.166 52.763-39.279 9.828 2.939 19.659-4.656 19.287-14.914-1.051-27.854 21.364-50.807 48.95-50.807 27.55 0 50.002 22.921 48.95 50.807-.372 10.239 9.434 17.853 19.287 14.914 26.353-7.877 52.763 11.96 52.763 39.279 0 6.665-1.558 13.031-4.63 18.92-6.009 11.518 4.54 24.763 17.128 21.441 3.421-.903 6.955-1.361 10.502-1.361 17.709 0 32.727 16.299 38.485 34h-364.97c5.758-17.701 20.776-34 38.485-34zm-78.192 266 34.828-202h374.729l34.828 202z"/><path d="m198.49 339.6c6.398 5.23 15.879 4.32 21.11-2.09 5.342-6.555 4.166-15.996-2.09-21.11-6.768-5.515-16.941-4.202-21.98 3.271-4.404 6.689-2.801 15.234 2.96 19.929z"/><path d="m241.29 310.93c1.631 7.868 8.804 12.741 16.19 11.99 8.441-.876 14.259-8.34 13.44-16.4-.688-8.243-8.581-14.964-17.85-13.229-7.944 1.648-13.37 9.196-11.78 17.639z"/><path d="m318.71 325.069c-1.895-9.075-11.064-13.97-19.07-11.409-7.882 2.393-12.383 10.676-9.99 18.699 2.823 8.663 11.569 12.25 18.71 9.98 7.184-2.18 11.825-9.38 10.35-17.27z"/><path d="m256 336.573c-32.659 0-59.229 26.569-59.229 59.229v2.146c0 21.961 20.991 37.808 42.119 31.771.673 0 15.27-5.416 34.221 0 21.117 6.032 42.119-9.797 42.119-31.771v-2.146c-.001-32.659-26.571-59.229-59.23-59.229zm29.229 61.374c0 2.021-1.92 3.486-3.877 2.925-16.553-4.729-34.085-4.748-50.704 0-1.953.559-3.877-.897-3.877-2.925v-2.146c0-16.116 13.112-29.229 29.229-29.229s29.229 13.112 29.229 29.229z"/><path d="m241.29 110.93c1.69 8.151 9.387 13.325 17.64 11.78 8.152-1.708 13.327-9.37 11.78-17.641-1.83-8.764-10.541-13.953-19.07-11.42-7.989 2.612-11.704 10.096-10.35 17.281z"/><path d="m185.48 186.93c12.529-1.3 18.064-16.349 9.13-25.54-6.75-6.552-16.875-5.437-22.21 1.1-8.508 10.451-.011 25.77 13.08 24.44z"/><path d="m328 187c12.562 0 19.615-14.65 11.6-24.511-5.36-6.568-15.489-7.624-22.21-1.1-9.422 9.693-2.638 25.611 10.61 25.611z"/><path d="m241.29 182.93c1.69 8.151 9.387 13.325 17.64 11.78 8.187-1.716 13.32-9.407 11.78-17.641-1.854-8.879-10.656-13.919-19.07-11.42-7.938 2.596-11.711 10.055-10.35 17.281z"/></g></svg>