<svg id="Capa_1" enable-background="new 0 0 512 512" height="512" viewBox="0 0 512 512" width="512" xmlns="http://www.w3.org/2000/svg"><g><path d="m198.809 137.592v-36.43c0-14.019-10.934-27-27.872-27v-18.775h26.763c9.613.059 20.016 3.213 21.467 5.644 3.706 7.412 12.717 10.412 20.125 6.708 7.41-3.705 10.413-12.715 6.708-20.125-10.578-21.156-42.054-22.228-48.256-22.228h-26.934c-1.318-14.006-13.085-25.386-26.872-25.386h-31.743c-14.635 0-27 12.822-27 28v46.162c-16.894 0-27.871 12.947-27.871 27v36.512c-34.831 9.159-57.29 38.898-57.29 68.727-.033 17.012-.027-21.058-.007 270.921 0 17.825 18.117 34.678 37.278 34.678h180.876c19.285 0 36.849-16.216 36.849-34.021 0-7.94 0-249.403 0-271.43 0-32.789-23.826-60.484-56.221-68.957zm-111.485-33.43h81.485v30.743h-81.485zm27.871-74.162h25.743v44.162h-25.743zm-36.542 134.909h99.319c25.093 0 45.661 17.467 46.99 39.382-12.411-.007-189.629-.1-194.795-.102 1.934-21.54 23.505-39.28 48.486-39.28zm146.377 312.724c-.609 1.528-3.959 4.367-6.849 4.367h-180.876c-2.761 0-6.588-3.198-7.278-5.05l-.017-242.761c10.84.006 189.415.1 195.02.103z"/><path d="m156.757 279.187h-56.447c-3.19-8.626-13.168-12.288-21.119-8.037-8.556 4.58-10.375 15.752-4.53 22.73.346.436.359.17 0 .61-5.426 6.657-4.092 16.065 2.09 21.11 8.082 6.578 20.054 3.163 23.561-6.413h56.445c2.192 6.049 7.947 9.813 14.045 9.813 12.754 0 19.745-15.11 11.325-24.815 8.833-10.207.645-26.101-12.795-24.735-5.425.557-10.479 4.022-12.575 9.737z"/><path d="m72.324 353c-8.284 0-15 6.716-15 15s6.716 15 15 15h111.485c8.284 0 15-6.716 15-15s-6.716-15-15-15z"/><path d="m162.905 417h-69.678c-8.284 0-15 6.716-15 15s6.716 15 15 15h69.678c8.284 0 15-6.716 15-15s-6.715-15-15-15z"/><circle cx="304.031" cy="128" r="16"/><path d="m313.321 50.93c1.658 7.992 9.227 13.355 17.64 11.78 8.122-1.694 13.332-9.35 11.78-17.64-1.839-8.817-10.605-13.943-19.07-11.42-7.909 2.577-11.717 10.017-10.35 17.28z"/><path d="m341.421 213.39c-5.837 6.004-5.878 15.164 0 21.22 6.047 5.87 15.198 5.846 21.22 0 5.862-6.038 5.853-15.199 0-21.22-6.005-5.837-15.173-5.878-21.22 0z"/><path d="m334.381 315.64c-2.631-8.644-12.149-12.841-20.09-9.49-8.006 3.382-11.173 12.338-8.11 19.59 3.359 7.96 12.296 11.191 19.59 8.11 7.024-2.971 10.87-10.609 8.61-18.21z"/><path d="m432.031 167c25.916 0 47-21.084 47-47s-21.084-47-47-47-47 21.084-47 47 21.084 47 47 47zm0-64c9.374 0 17 7.626 17 17s-7.626 17-17 17-17-7.626-17-17 7.626-17 17-17z"/><circle cx="456.031" cy="248" r="16"/><path d="m510.918 446.455c-5.958-31.153-36.911-51.346-68.059-45.394-14.686-18.115-38.182-26.984-61.861-22.451-25.434 4.876-45.587 24.572-50.837 50.228-23.348 4.473-38.707 27.11-34.239 50.475 3.854 20.093 19.135 32.681 39.3 32.679 1.554 0-16.623-.052 128.467-.052.947 0 1.893-.09 2.823-.268 31.057-5.953 50.344-34.228 44.406-65.217zm-48.794 35.484c-107.037 0-124.214-.012-125.43.021-6.71.183-9.975-1.347-11.307-8.292-1.766-9.237 6.495-17.205 15.467-15.35 9.478 1.96 18.425-5.543 18.023-15.306-.688-16.752 11.25-31.773 27.767-34.94 14.875-2.848 29.618 4.222 36.686 17.593 3.652 6.905 12.151 9.916 19.379 6.686 16.103-7.194 35.508 2.817 38.745 19.744 2.721 14.204-5.368 26.558-19.33 29.844z"/></g></svg>