<svg id="Capa_1" enable-background="new 0 0 512.052 512.052" height="512" viewBox="0 0 512.052 512.052" width="512" xmlns="http://www.w3.org/2000/svg"><g><path d="m33.581 51.654c-44.022 64.924-44.161 167.754.036 232.349 12.5 18.27 27.465 31.976 43.926 40.564-13.26 95.552-16.913 121.782-16.965 122.407-2.891 34.613 24.501 65.079 58.958 65.079s61.849-30.466 58.958-65.079c-.052-.625-3.704-26.855-16.965-122.407 16.461-8.588 31.425-22.294 43.926-40.564 44.148-64.523 44.104-167.357.036-232.349-46.521-68.608-125.033-69.136-171.91 0zm115.045 398.183c1.183 16.687-11.971 32.215-29.09 32.215-17.132 0-30.273-15.54-29.09-32.215l16.064-115.756c8.701 1.294 17.336 1.296 26.052 0zm32.069-182.775c-34.629 50.612-87.633 50.695-122.319 0-37.434-54.711-36.895-144.106.035-198.572 34.721-51.207 87.468-51.294 122.248 0 36.939 54.478 37.435 143.912.036 198.572z"/><path d="m102.245 101.122c-1.842-8.831-10.618-13.939-19.07-11.42-8.497 2.769-12.229 11.206-9.99 18.71 2.799 8.588 11.253 12.205 18.71 9.99 7.906-2.584 11.714-9.996 10.35-17.28z"/><path d="m102.245 165.122c-1.839-8.817-10.605-13.943-19.07-11.42-8.589 2.799-12.208 11.275-9.99 18.71 2.799 8.588 11.253 12.205 18.71 9.99 7.906-2.584 11.714-9.996 10.35-17.28z"/><path d="m102.245 229.122c-1.85-8.872-10.66-13.926-19.07-11.42-8.592 2.8-12.207 11.276-9.99 18.71 2.797 8.583 11.254 12.205 18.71 9.99 7.903-2.583 11.715-9.992 10.35-17.28z"/><path d="m166.245 101.122c-1.854-8.889-10.677-13.921-19.07-11.42-8.59 2.799-12.208 11.274-9.99 18.71 2.759 8.466 11.143 12.238 18.71 9.99 7.925-2.59 11.711-10.013 10.35-17.28z"/><path d="m166.245 165.122c-1.85-8.872-10.66-13.926-19.07-11.42-8.59 2.799-12.208 11.274-9.99 18.71 2.762 8.475 11.143 12.238 18.71 9.99 7.925-2.59 11.711-10.013 10.35-17.28z"/><path d="m166.245 229.122c-1.85-8.872-10.66-13.926-19.07-11.42-8.587 2.799-12.208 11.274-9.99 18.71 2.762 8.475 11.143 12.238 18.71 9.99 7.902-2.583 11.715-9.992 10.35-17.28z"/><path d="m483.535 153.052h-21v-45c0-14.912-12.088-27-27-27h-29v-51h46.227c4.879 0 9.043 1.176 12.337 3.08 3.414 1.973 7.325 5.407 7.434 14.529.094 7.928 6.005 14.794 13.914 15.352 8.776.619 16.089-6.317 16.089-14.961 0-34.145-27.827-47.408-46.531-47.993-.366-.011 4.821-.007-88.037-.007-8.077 0-15.035 6.207-15.415 14.275-.406 8.614 6.458 15.725 14.983 15.725h9v51h-29c-14.912 0-27 12.088-27 27v45h-21c-14.912 0-27 12.088-27 27v304c0 15.178 12.364 28 27 28h184c15.4 0 28-12.6 28-28v-304c-.001-14.635-12.823-27-28.001-27zm-133-42h82v42h-82zm131 371h-179v-299h179z"/><path d="m423.535 305.052h-17v-17c0-8.284-6.716-15-15-15s-15 6.716-15 15v17h-17c-8.284 0-15 6.716-15 15s6.716 15 15 15h17v17c0 8.284 6.716 15 15 15s15-6.716 15-15v-17h17c8.284 0 15-6.716 15-15s-6.715-15-15-15z"/></g></svg>