<svg id="Capa_1" enable-background="new 0 0 512 512" height="512" viewBox="0 0 512 512" width="512" xmlns="http://www.w3.org/2000/svg"><g><path d="m500.197 294.137c-13.188-28.867-47.303-41.265-75.923-28.782l-3.472 1.515v-62.502c.001-115.18-96.775-204.368-206.999-204.368-114.14 0-207 91.679-207 204.367v126.071c0 49.455 31.797 93.879 80 110.229v43.263c0 15.478 12.112 28.069 27 28.069h200c14.888 0 27-12.592 27-28.069v-43.25c21.659-7.317 40.8-20.704 55.008-38.646l75.078-32.757c29.133-12.705 42.282-46.494 29.308-75.14zm-189.394 187.863h-194v-35h194zm162.61-155.332c-2.616 6.802-7.771 12.168-14.52 15.111l-78.64 34.312c-2.419 1.056-4.517 2.73-6.081 4.856-16.275 22.113-42.553 36.053-71.879 36.053h-176.98c-48.744 0-88.51-38.181-88.51-86.562v-126.071c0-96.146 79.402-174.367 177-174.367 93.734 0 177 75.857 177 174.367v85.411c0 10.792 11.095 18.07 20.998 13.749l24.468-10.675c22.287-9.716 45.703 11.563 37.144 33.816z"/><path d="m213.803 81c-78.45 0-142.273 64.149-142.273 143s63.823 143 142.273 143c78.449 0 142.272-64.149 142.272-143s-63.823-143-142.272-143zm0 256c-61.908 0-112.273-50.691-112.273-113s50.365-113 112.273-113c61.907 0 112.272 50.691 112.272 113s-50.365 113-112.272 113z"/><path d="m222.132 275.529c-7.841-5.159-17.788-1.94-21.55 5.4-5.898 11.295 3.671 24.116 16.15 21.78 13.197-2.765 16.387-19.757 5.4-27.18z"/><path d="m228.512 221.069c-1.849-8.858-10.636-13.925-19.07-11.42-8.469 2.769-12.24 11.169-9.99 18.71 2.848 8.738 11.412 12.173 18.71 9.99 7.852-2.55 11.729-9.908 10.35-17.28z"/><path d="m292.513 221.069c-1.743-8.309-9.539-13.294-17.641-11.779-8.041 1.67-13.346 9.276-11.779 17.64 1.682 8.115 9.352 13.333 17.64 11.78 8.135-1.703 13.328-9.357 11.78-17.641z"/><path d="m146.872 209.29c-8.071 1.675-13.348 9.316-11.78 17.64 2.591 12.497 18.39 16.298 26.31 6.58 8.753-10.724-.444-26.857-14.53-24.22z"/><path d="m228.512 157.069c-1.84-8.815-10.593-13.938-19.07-11.42-8.497 2.778-12.237 11.177-9.99 18.71 2.869 8.802 11.545 12.178 18.7 9.99 7.743-2.46 11.749-9.855 10.36-17.28z"/></g></svg>