<svg id="Capa_1" enable-background="new 0 0 511.979 511.979" height="512" viewBox="0 0 511.979 511.979" width="512" xmlns="http://www.w3.org/2000/svg"><g><path d="m208.867 251.182c7.789-.792 13.52-7.334 13.52-14.92 0-4.23-1.853-8.146-4.39-10.609-5.965-6.154-16.53-5.867-22.2 1.09-8.551 10.477.034 25.789 13.07 24.439z"/><path d="m262.537 269.283c7.374-3.95 10.03-13.06 6.16-20.29-4.108-7.692-14.002-10.389-21.55-5.41-6.558 4.314-8.936 13.514-4.14 20.8 4.13 6.273 12.578 8.608 19.53 4.9z"/><path d="m284.787 292.542c-11.021-8.981-27.039.996-24.22 14.53 1.689 8.132 9.349 13.348 17.64 11.779 12.651-2.679 16.202-18.467 6.58-26.309z"/><path d="m193.388 258.913c-15.82 0-30.694 6.16-41.883 17.35l-1.515 1.516c-15.528 15.528-11.891 41.576 7.317 52.247 10.177 5.654 18.544 14.021 24.198 24.197 10.629 19.133 36.666 22.898 52.246 7.319l1.519-1.519c11.187-11.187 17.348-26.061 17.348-41.882-.001-32.734-26.492-59.228-59.23-59.228zm20.67 79.896c-1.466 1.466-2.264 2.636-4.091 2.38-.685-.096-1.628-.44-2.237-1.534-8.376-15.078-20.774-27.477-35.853-35.854-1.773-.985-2.112-3.372-.672-4.812l1.515-1.516c5.521-5.521 12.861-8.561 20.668-8.561 16.154 0 29.229 13.073 29.229 29.229 0 7.808-3.04 15.149-8.559 20.668z"/><path d="m498.201 13.759c-18.316-18.318-50.692-18.373-69.064 0-.482.481.054-.108-9.258 10.477-18.346-8.903-40.263-7.924-58.118 3.438l-31.501 20.045c-21.558-1.644-39.954 11.185-47.245 29.228-18.425-10.866-42.156-6.472-55.401 10.559l-74.563 95.867c-15.708 20.195-34.104 38.15-54.677 53.363l-80.966 58.662c-15.438 10.943-22.19 33.094-13.655 52.001.995 0 40.077 105.681 158.804 160.012 5.994 2.744 11.527 4.568 19.244 4.568 13.872-.001 26.812-6.716 34.575-17.43l58.582-81.256c15.211-20.567 33.161-38.957 53.354-54.662l95.867-74.563c17.009-13.229 21.436-36.946 10.556-55.4 18.227-7.365 30.863-25.878 29.229-47.247 21.085-33.133 19.945-31.5 20.046-31.5 11.344-17.828 12.339-39.705 3.479-58.033 10.754-9.326 10.18-8.807 10.714-9.343 18.281-18.282 18.404-50.381-.002-68.786zm-183.615 68.786c6.643-6.644 17.396-6.645 24.041 0l90.51 90.511c10.619 10.616 3.155 29.02-12.021 29.02-4.541 0-8.81-1.769-12.021-4.979-10.947-10.947-79.494-79.494-90.513-90.513-6.638-6.643-6.642-17.394.004-24.039zm91.172 177.843-95.867 74.562c-23.375 18.181-44.273 40.097-59.217 60.724l-58.573 81.244c-3.561 4.761-10.055 6.419-15.463 3.945-66.405-30.402-117.553-83.804-145.544-145.809-2.438-5.399-.762-11.872 3.983-15.414l80.958-58.655c18.448-13.077 41.828-34.937 60.695-59.195l74.563-95.867c4.751-6.109 13.667-6.533 19.017-1.185 7.489 7.489 129.385 129.386 136.631 136.632 5.361 5.36 4.916 14.273-1.183 19.018zm71.535-199.37c-20.617 17.881-19.247 16.682-19.618 17.036-6.051 5.724-6.215 14.712-1.268 20.612 8.385 10 9.305 24.125 2.291 35.149.1 0 .095-.148-10.256 16.117l-86.692-86.692 16.118-10.257c11.022-7.014 25.148-6.095 35.148 2.291 6.161 5.164 15.155 4.484 20.485-1.136.438-.448 5.195-5.874 17.131-19.44 8.964-8.469 31.336-6.32 31.336 13.453-.001 5.043-1.7 9.704-4.675 12.867z"/></g></svg>