<svg height="464pt" viewBox="0 -1 464 464" width="464pt" xmlns="http://www.w3.org/2000/svg"><path d="m428 363.996094h-392c-17.675781 0-32-14.324219-32-32v-296c0-17.675782 14.324219-32 32-32h392c17.675781 0 32 14.324218 32 32v296c0 17.675781-14.324219 32-32 32zm0 0" fill="#4671c6"/><path d="m28 255.996094v-216c0-6.628906 5.371094-12 12-12h384c6.628906 0 12 5.371094 12 12v216c0 6.628906-5.371094 12-12 12h-384c-6.628906 0-12-5.371094-12-12zm0 0" fill="#f9cfcf"/><path d="m155.3125 128.914062v103.898438c0 4.234375 3.433594 7.667969 7.667969 7.667969h138.039062c4.238281 0 7.667969-3.433594 7.667969-7.667969v-103.898438zm0 0" fill="#e0ebfc"/><path d="m137.644531 122.214844 89.742188-67.558594c2.734375-2.054688 6.496093-2.054688 9.226562 0l89.742188 67.558594c2.9375 2.214844 1.289062 6.699218-2.46875 6.699218h-183.773438c-3.757812 0-5.40625-4.484374-2.46875-6.699218zm0 0" fill="#f9a7a7"/><path d="m252.277344 85.894531h-8.980469c-1.523437 0-2.761719-1.238281-2.761719-2.761719v-8.980468c0-1.523438-1.238281-2.761719-2.765625-2.761719h-11.539062c-1.523438 0-2.761719 1.238281-2.761719 2.761719v8.980468c0 1.523438-1.238281 2.761719-2.765625 2.761719h-8.976563c-1.527343 0-2.765624 1.238281-2.765624 2.765625v11.539063c0 1.523437 1.238281 2.761719 2.765624 2.761719h8.976563c1.527344 0 2.765625 1.238281 2.765625 2.765624v8.976563c0 1.527344 1.238281 2.765625 2.761719 2.765625h11.539062c1.527344 0 2.765625-1.238281 2.765625-2.765625v-8.976563c0-1.527343 1.238282-2.765624 2.761719-2.765624h8.980469c1.523437 0 2.761718-1.238282 2.761718-2.761719v-11.539063c0-1.527344-1.238281-2.765625-2.761718-2.765625zm0 0" fill="#f9cfcf"/><path d="m252.277344 85.894531h-8.980469c-1.523437 0-2.761719-1.238281-2.761719-2.761719v-8.980468c0-1.523438-1.238281-2.761719-2.765625-2.761719h-11.539062c-1.523438 0-2.761719 1.238281-2.761719 2.761719v8.980468c0 1.523438-1.238281 2.761719-2.765625 2.761719h-8.976563c-1.527343 0-2.765624 1.238281-2.765624 2.765625v11.539063c0 1.523437 1.238281 2.761719 2.765624 2.761719h8.976563c1.527344 0 2.765625 1.238281 2.765625 2.765624v8.976563c0 1.527344 1.238281 2.765625 2.761719 2.765625h11.539062c1.527344 0 2.765625-1.238281 2.765625-2.765625v-8.976563c0-1.527343 1.238282-2.765624 2.761719-2.765624h8.980469c1.523437 0 2.761718-1.238282 2.761718-2.761719v-11.539063c0-1.527344-1.238281-2.765625-2.761718-2.765625zm0 0" fill="#f9cfcf"/><path d="m252.277344 85.894531h-8.980469c-1.523437 0-2.761719-1.238281-2.761719-2.761719v-8.980468c0-1.523438-1.238281-2.761719-2.765625-2.761719h-11.539062c-1.523438 0-2.761719 1.238281-2.761719 2.761719v8.980468c0 1.523438-1.238281 2.761719-2.765625 2.761719h-8.976563c-1.527343 0-2.765624 1.238281-2.765624 2.765625v11.539063c0 1.523437 1.238281 2.761719 2.765624 2.761719h8.976563c1.527344 0 2.765625 1.238281 2.765625 2.765624v8.976563c0 1.527344 1.238281 2.765625 2.761719 2.765625h11.539062c1.527344 0 2.765625-1.238281 2.765625-2.765625v-8.976563c0-1.527343 1.238282-2.765624 2.761719-2.765624h8.980469c1.523437 0 2.761718-1.238282 2.761718-2.761719v-11.539063c0-1.527344-1.238281-2.765625-2.761718-2.765625zm0 0" fill="#f9cfcf"/><g fill="#4671c6"><path d="m196.257812 185.871094c-6.1875 0-11.203124-5.015625-11.203124-11.199219v-6.402344c0-6.183593 5.015624-11.199219 11.203124-11.199219 6.183594 0 11.199219 5.015626 11.199219 11.199219v6.402344c0 6.183594-5.015625 11.199219-11.199219 11.199219zm0 0"/><path d="m267.742188 185.871094c6.1875 0 11.203124-5.015625 11.203124-11.199219v-6.402344c0-6.183593-5.015624-11.199219-11.203124-11.199219-6.183594 0-11.199219 5.015626-11.199219 11.199219v6.402344c0 6.183594 5.015625 11.199219 11.199219 11.199219zm0 0"/><path d="m217.691406 165.253906c-6.183594 0-11.199218-5.015625-11.199218-11.203125v-6.398437c0-6.1875 5.015624-11.199219 11.199218-11.199219 6.1875 0 11.199219 5.011719 11.199219 11.199219v6.398437c0 6.1875-5.011719 11.203125-11.199219 11.203125zm0 0"/><path d="m245.703125 165.253906c6.183594 0 11.199219-5.015625 11.199219-11.203125v-6.398437c0-6.1875-5.015625-11.199219-11.199219-11.199219-6.1875 0-11.199219 5.011719-11.199219 11.199219v6.398437c0 6.1875 5.015625 11.203125 11.199219 11.203125zm0 0"/><path d="m254.003906 187.308594c-.992187-.246094-1.679687-1.085938-1.679687-2.046875 0-10.492188-9.101563-18.996094-20.324219-18.996094s-20.324219 8.503906-20.324219 18.996094c0 .960937-.6875 1.800781-1.679687 2.046875-8.566406 2.140625-14.878906 9.445312-14.878906 18.125v.464844c0 10.363281 8.988281 18.765624 20.074218 18.765624h33.617188c11.085937 0 20.074218-8.402343 20.074218-18.765624v-.464844c0-8.683594-6.3125-15.984375-14.878906-18.125zm0 0"/><path d="m342 429.996094h-220l29.335938-120h161.328124zm0 0"/></g><path d="m342 434h-220c-1.226562 0-2.386719-.5625-3.144531-1.53125-.757813-.964844-1.03125-2.226562-.742188-3.417969l29.335938-120c.4375-1.789062 2.039062-3.050781 3.886719-3.050781h161.332031c1.84375 0 3.449219 1.261719 3.886719 3.050781l29.332031 120c.292969 1.191407.019531 2.453125-.738281 3.417969-.761719.96875-1.921876 1.53125-3.148438 1.53125zm-214.902344-8h209.804688l-27.375-112h-155.054688zm0 0" fill="#3762cc"/><path d="m460 335.195312v-43.199218h-456v43.199218c0 15.90625 14.324219 28.800782 32 28.800782h392c17.675781 0 32-12.894532 32-28.800782zm0 0" fill="#e0ebfc"/><path d="m370.777344 457.996094h-277.554688c-6.199218 0-11.222656-5.027344-11.222656-11.222656v-5.550782c0-6.199218 5.027344-11.226562 11.222656-11.226562h277.550782c6.199218 0 11.222656 5.027344 11.222656 11.226562v5.550782c.003906 6.195312-5.023438 11.222656-11.21875 11.222656zm0 0" fill="#e0ebfc"/><path d="m233.027344 347.996094h-2.054688c-10.433594 0-18.972656-8.539063-18.972656-18.972656v-2.054688c0-10.433594 8.539062-18.972656 18.972656-18.972656h2.054688c10.433594 0 18.972656 8.539062 18.972656 18.972656v2.054688c0 10.433593-8.539062 18.972656-18.972656 18.972656zm0 0" fill="#a4c9ff"/><path d="m428 368h-392c-19.851562 0-36-16.148438-36-36v-296c0-19.851562 16.148438-36 36-36h392c19.851562 0 36 16.148438 36 36v296c0 19.851562-16.148438 36-36 36zm-392-360c-15.441406 0-28 12.558594-28 28v296c0 15.441406 12.558594 28 28 28h392c15.441406 0 28-12.558594 28-28v-296c0-15.441406-12.558594-28-28-28zm0 0" fill="#3762cc"/><path d="m424 272h-384c-8.820312 0-16-7.179688-16-16v-216c0-8.820312 7.179688-16 16-16h384c8.820312 0 16 7.179688 16 16v216c0 8.820312-7.179688 16-16 16zm-384-240c-4.410156 0-8 3.589844-8 8v216c0 4.410156 3.589844 8 8 8h384c4.410156 0 8-3.589844 8-8v-216c0-4.410156-3.589844-8-8-8zm0 0" fill="#3762cc"/><path d="m370.777344 462h-277.554688c-8.394531 0-15.222656-6.828125-15.222656-15.226562v-5.550782c0-8.394531 6.828125-15.222656 15.222656-15.222656h277.550782c8.394531 0 15.222656 6.828125 15.222656 15.222656v5.550782c.003906 8.398437-6.824219 15.226562-15.21875 15.226562zm-277.554688-28c-3.984375 0-7.222656 3.242188-7.222656 7.222656v5.550782c0 3.984374 3.242188 7.226562 7.222656 7.226562h277.550782c3.984374 0 7.222656-3.242188 7.222656-7.226562v-5.550782c0-3.984375-3.238282-7.222656-7.222656-7.222656zm0 0" fill="#3762cc"/><path d="m424 273.351562h-384c-8.820312 0-16-7.179687-16-16v-216c0-8.824218 7.179688-16 16-16h384c8.820312 0 16 7.175782 16 16v216c0 8.820313-7.179688 16-16 16zm-384-240c-4.410156 0-8 3.585938-8 8v216c0 4.410157 3.589844 8 8 8h384c4.410156 0 8-3.589843 8-8v-216c0-4.414062-3.589844-8-8-8zm0 0" fill="#3762cc"/><path d="m311.457031 192.523438-40.15625-8.605469c-1.183593-.253907-2.289062.851562-2.035156 2.035156l8.605469 40.15625c.265625 1.242187 1.804687 1.632813 2.738281.703125l4.902344-4.902344c.707031-.707031 1.839843-.679687 2.433593.058594l26.957032 33.574219c.59375.738281 1.726562.765625 2.433594.058593l23.613281-23.617187c.707031-.707031.679687-1.839844-.058594-2.433594l-33.574219-26.953125c-.738281-.59375-.765625-1.726562-.054687-2.4375l4.898437-4.898437c.933594-.933594.539063-2.472657-.703125-2.738281zm0 0" fill="#f9a7a7"/></svg>