<svg id="Capa_1" enable-background="new 0 0 512 512" height="512" viewBox="0 0 512 512" width="512" xmlns="http://www.w3.org/2000/svg"><g><g><path d="m226.772 413.316h58.456v76.184h-58.456z" fill="#c7c2c9"/><path d="m474.5 428.316h-437c-16.569 0-30-13.431-30-30v-254.632c0-16.569 13.431-30 30-30h437c16.569 0 30 13.431 30 30v254.632c0 16.569-13.431 30-30 30z" fill="#655e67"/><path d="m474.5 113.684h-30c16.569 0 30 13.432 30 30v254.633c0 16.568-13.431 30-30 30h30c16.569 0 30-13.432 30-30v-254.633c0-16.569-13.431-30-30-30z" fill="#544f56"/><path d="m37.5 395.316v-248.632c0-1.657 1.343-3 3-3h431c1.657 0 3 1.343 3 3v248.633c0 1.657-1.343 3-3 3h-431c-1.657-.001-3-1.344-3-3.001z" fill="#ecf5ff"/><path d="m471.5 143.684h-30c1.657 0 3 1.343 3 3v248.633c0 1.657-1.343 3-3 3h30c1.657 0 3-1.343 3-3v-248.633c0-1.657-1.343-3-3-3z" fill="#dceafc"/><path d="m302.203 474.5h-92.405c-14.912 0-27 12.088-27 27 0 1.657 1.343 3 3 3h140.405c1.657 0 3-1.343 3-3 0-14.912-12.089-27-27-27z" fill="#655e67"/><path d="m302.203 474.5h-30c14.912 0 27 12.088 27 27 0 1.657-1.343 3-3 3h30c1.657 0 3-1.343 3-3 0-14.912-12.089-27-27-27z" fill="#544f56"/><g><g><path d="m410.923 398.316v-81.117c0-21.458-13.713-40.521-34.071-47.364l-72.394-24.334c-6.786-2.281-11.357-8.635-11.357-15.788v-27.126h-74.202v27.126c0 7.153-4.571 13.507-11.357 15.788l-72.394 24.334c-20.358 6.843-34.071 25.906-34.071 47.364v81.117z" fill="#b3e59f"/><g><path d="m376.852 269.835-72.394-24.334c-6.786-2.281-11.357-8.635-11.357-15.788v-27.125h-74.202v15h44.202v27.125c0 7.153 4.571 13.507 11.357 15.788l72.394 24.334c20.358 6.843 34.071 25.906 34.071 47.364v66.117h30v-81.117c0-21.457-13.713-40.52-34.071-47.364z" fill="#95d6a4"/></g><path d="m206.981 245.69 45.612 45.566c2.343 2.34 6.138 2.34 8.481 0l45.193-45.146-1.809-.608c-6.786-2.281-11.357-8.635-11.357-15.788v-27.125h-74.202v27.125c0 7.153-4.571 13.507-11.357 15.788z" fill="#f1ccbd"/><path d="m263.101 244.713c0 7.153 4.571 13.507 11.357 15.788l13.021 4.377 18.788-18.769-1.809-.608c-6.786-2.281-11.357-8.635-11.357-15.788v-27.125h-30z" fill="#eaad9c"/><g><path d="m343.134 109.592h-174.269v-64.261c0-20.894 16.938-37.831 37.831-37.831h98.607c20.894 0 37.831 16.938 37.831 37.831z" fill="#c17d4f"/><path d="m305.303 7.5h-30c20.894 0 37.831 16.938 37.831 37.831v64.261h30v-64.261c.001-20.893-16.937-37.831-37.831-37.831z" fill="#b16e3d"/><g><path d="m255.692 216.718c-48.157-.166-86.827-39.881-86.827-87.99v-30.479c17.373.051 43.476-2.145 72.339-13.758 13.464-5.417 24.771-11.774 33.942-17.853 1.983-1.315 4.636-.851 6.095 1.028 4.612 5.941 12.359 14.166 24.106 20.679 15.813 8.766 30.609 9.848 37.788 9.903v31.424c-.001 48.177-39.178 87.213-87.443 87.046z" fill="#f1ccbd"/></g><g><path d="m313.134 92.103v22.57c0 48.176-39.178 87.212-87.442 87.045-7.792-.027-15.334-1.095-22.506-3.061 14.555 11.25 32.729 17.993 52.506 18.061 48.265.167 87.442-38.869 87.442-87.045 0-15.475 0-15.95 0-31.424-5.982-.046-17.258-.823-30-6.146z" fill="#eaad9c"/></g></g><ellipse cx="350.718" cy="342.929" fill="#f1eff1" rx="26.924" ry="26.896"/></g></g></g><path d="m474.5 106.18h-96.37c-4.143 0-7.5 3.357-7.5 7.5s3.357 7.5 7.5 7.5h96.37c12.406 0 22.5 10.094 22.5 22.5v254.64c0 12.406-10.094 22.5-22.5 22.5h-189.194c-.026 0-.051-.004-.077-.004s-.051.004-.077.004h-58.302c-.026 0-.051-.004-.077-.004s-.051.004-.077.004h-189.196c-12.406 0-22.5-10.094-22.5-22.5v-254.64c0-12.406 10.094-22.5 22.5-22.5h123.865v7.548c0 2.508.106 4.992.296 7.452h-121.161c-5.79 0-10.5 4.71-10.5 10.5v186.012c0 4.143 3.357 7.5 7.5 7.5s7.5-3.357 7.5-7.5v-181.512h119.023c6.41 26.669 23.959 49.029 47.377 61.728v16.803c0 3.937-2.511 7.425-6.251 8.681l-72.388 24.34c-23.436 7.873-39.182 29.763-39.182 54.47v73.62h-48.579v-23.129c0-4.143-3.357-7.5-7.5-7.5s-7.5 3.357-7.5 7.5v27.629c0 5.79 4.71 10.5 10.5 10.5h431c5.79 0 10.5-4.71 10.5-10.5v-248.642c0-5.79-4.71-10.5-10.5-10.5h-121.09c.146-2.156.224-4.325.224-6.507v-84.342c.001-24.996-20.334-45.331-45.33-45.331h-98.607c-24.996 0-45.331 20.335-45.331 45.331v60.849h-123.866c-20.678 0-37.5 16.822-37.5 37.5v254.64c0 20.678 16.822 37.5 37.5 37.5h181.771v31.18h-9.474c-19.023 0-34.5 15.477-34.5 34.5 0 5.79 4.71 10.5 10.5 10.5h140.404c5.79 0 10.5-4.71 10.5-10.5 0-19.023-15.477-34.5-34.5-34.5h-9.474v-31.18h181.773c20.678 0 37.5-16.822 37.5-37.5v-254.64c0-20.678-16.822-37.5-37.5-37.5zm-71.08 284.64h-294.84v-73.62c0-18.257 11.638-34.432 28.961-40.251l16.944-5.697c-.971 5.463-1.377 11.01-1.166 16.6.193 5.112.887 10.178 2.071 15.144-16.399 4.306-28.532 19.253-28.532 36.984v24.683c0 6.982 5.681 12.663 12.663 12.663h7.008c4.143 0 7.5-3.357 7.5-7.5s-3.357-7.5-7.5-7.5h-4.671v-22.346c0-12.806 10.413-23.225 23.217-23.235.007 0 .013.001.019.001.009 0 .019-.001.028-.001 12.799.016 23.206 10.432 23.206 23.234v22.346h-4.671c-4.143 0-7.5 3.357-7.5 7.5s3.357 7.5 7.5 7.5h7.008c6.982 0 12.663-5.681 12.663-12.663v-24.683c0-19.187-14.208-35.113-32.654-37.824-1.379-4.851-2.176-9.833-2.366-14.871-.279-7.365.732-14.646 2.987-21.686l33.668-11.321 42.328 42.284c5.26 5.254 13.821 5.254 19.082-.001l41.906-41.864 36.816 12.378c2.679 7.01 4.047 14.564 3.977 22.036-.063 6.708-1.311 13.475-3.598 19.819-16.501 2.53-29.18 16.812-29.18 33.997 0 18.966 15.442 34.396 34.423 34.396s34.424-15.431 34.424-34.396c0-15.432-10.225-28.521-24.26-32.864 2.019-6.755 3.125-13.807 3.192-20.81.052-5.472-.523-10.977-1.673-16.361l12.061 4.055c17.321 5.819 28.959 21.994 28.959 40.251zm-109.559-142.919-37.028 36.989-37.836-37.797c4.622-4.453 7.403-10.665 7.403-17.384v-10.291c9.218 3.076 19.053 4.764 29.266 4.799.113 0 .225.001.338.001 10.209 0 20.169-1.605 29.596-4.694v10.185c0 7.131 3.119 13.702 8.261 18.192zm56.845 75.633h.008.01c10.707.003 19.418 8.703 19.418 19.395 0 10.695-8.714 19.396-19.424 19.396s-19.423-8.701-19.423-19.396c0-10.691 8.707-19.389 19.411-19.395zm-2.521-172.354h118.815v239.64h-48.58v-73.62c0-24.707-15.746-46.597-39.18-54.47l-72.393-24.34c-3.737-1.256-6.248-4.744-6.248-8.681v-16.599c8.075-4.322 15.562-9.852 22.232-16.5 12.733-12.686 21.397-28.354 25.354-45.43zm-171.82-105.849c0-16.725 13.606-30.331 30.331-30.331h98.607c16.725 0 30.331 13.606 30.331 30.331v44.951c-7.621-.868-17.014-3.153-26.651-8.496-8.488-4.705-15.829-11.003-21.818-18.717-3.848-4.961-10.949-6.139-16.163-2.682-10.268 6.806-21.235 12.574-32.598 17.146-19.694 7.924-40.531 12.306-62.039 13.08zm0 60.304c23.438-.781 46.157-5.542 67.639-14.186 11.463-4.612 22.555-10.35 33.005-17.07 6.917 8.369 15.216 15.268 24.701 20.526 12.382 6.863 24.434 9.564 33.925 10.461v24.307c0 21.283-8.307 41.282-23.391 56.313-6.475 6.453-13.863 11.647-21.868 15.481-.331.129-.651.278-.956.451-10.417 4.818-21.853 7.345-33.701 7.299h-.001c-43.755-.15-79.353-36.259-79.353-80.49 0-.097-.004-23.014 0-23.092zm57.906 330.185h43.457v31.18h-43.457zm67.931 46.18c9.204 0 16.939 6.409 18.976 15h-130.356c2.036-8.591 9.771-15 18.976-15z"/></g></svg>