<svg className="logo" version="1.1" xmlns="http://www.w3.org/2000/svg" xmlns:xlink="http://www.w3.org/1999/xlink" viewBox="0 0 357 93.5">
<g id="Layer_1">
	<g>
		<path fill="#DA5251" d="M227.4,80.9v-2.2h23.4v2.2H227.4z"></path>
	</g>
	<g>
		<defs>
			<polygon id="SVGID_1_" points="225.7,21.9 210.7,15.1 210.7,12.7 228.6,20.9 228.6,23 210.7,31.1 210.7,28.7 225.7,21.9 			"></polygon>
		</defs>
		<use xlink:href="#SVGID_1_" overflow="visible" fill="#DA5251"></use>
		<clipPath id="SVGID_2_">
			<use xlink:href="#SVGID_1_" overflow="visible"></use>
		</clipPath>
	</g>
	<path fill="#012D3D" d="M249.2,78.7l-2.9-50.1h1.3v-1.8h-2.3v-8.7h2.8l-9.1-8.5l-8.5,8.5h2.4v8.7h-2.4v1.8h1.6L229,78.7H249.2z
		 M243.6,18.1v8.1H235v-8.1H243.6z M241.1,76.9v-3.7h-3.4v3.7H231l0.4-5.3l15.3-7.3l0.7,12.6H241.1z M233.3,42.3l11.8-5.5l0.7,11.4
		l-13.3,6.9L233.3,42.3z"></path>
</g>
<g id="Layer_2">
	<g>
		<path fill="#012D3D" d="M3.6,74.2V47.8h2.8v24h13.5v2.5H3.6z"></path>
		<path fill="#012D3D" d="M24.9,74.2V47.8h2.8v26.5H24.9z"></path>
		<path fill="#012D3D" d="M50.6,71.4c-0.9,1-1.9,1.7-3.2,2.2c-1.2,0.5-2.5,0.8-3.8,0.8c-2.7,0-4.8-0.7-6.2-2.2
			c-1.5-1.5-2.4-2.9-2.6-4.3c-0.3-1.4-0.4-3.7-0.4-6.9c0-2.6,0.1-4.7,0.2-6.3c0.1-1.6,1-3.2,2.6-4.8c1.6-1.6,3.7-2.4,6.4-2.4
			c1.6,0,3.1,0.3,4.3,0.9c1.2,0.6,2.4,1.5,3.7,2.7L49.6,53c-1.1-1.1-2-1.8-2.8-2.3c-0.8-0.5-1.9-0.7-3.2-0.7c-1.8,0-3.3,0.5-4.3,1.6
			c-1,1.1-1.6,2.1-1.8,3.3c-0.2,1.1-0.3,3.2-0.3,6.1c0,2.9,0.1,4.9,0.3,6.1c0.2,1.2,0.8,2.3,1.8,3.3c1,1,2.4,1.5,4.3,1.5
			c2.1,0,3.6-0.5,4.4-1.6c0.9-1.1,1.4-2,1.7-2.8c0.2-0.8,0.3-1.7,0.3-2.7v-2h-6.4v-2.5h9.2v4.2c0,1.5-0.2,2.8-0.5,3.9
			C52,69.5,51.4,70.5,50.6,71.4z"></path>
		<path fill="#012D3D" d="M74.7,74.2V62.1H62.1v12.1h-2.8V47.8h2.8v11.8h12.6V47.8h2.8v26.5H74.7z"></path>
		<path fill="#012D3D" d="M92.9,50.3v24h-2.8v-24h-7.6v-2.5h18.1v2.5H92.9z"></path>
		<path fill="#012D3D" d="M120.9,74.2V62.1h-12.6v12.1h-2.8V47.8h2.8v11.8h12.6V47.8h2.8v26.5H120.9z"></path>
		<path fill="#012D3D" d="M146.4,71.7c-1.8,1.8-4.1,2.7-6.8,2.7c-2.7,0-4.8-0.7-6.2-2.2s-2.4-2.9-2.6-4.3c-0.3-1.4-0.4-3.7-0.4-6.9
			c0-2.6,0.1-4.7,0.2-6.3c0.1-1.6,1-3.2,2.6-4.8c1.6-1.6,3.7-2.4,6.4-2.4c2.7,0,4.8,0.7,6.2,2.2s2.4,2.9,2.6,4.3
			c0.3,1.4,0.4,3.7,0.4,6.9c0,2.6-0.1,4.7-0.2,6.3C148.5,68.8,147.7,70.3,146.4,71.7z M144.2,52c-1.2-1.3-2.7-1.9-4.6-1.9
			c-1.8,0-3.3,0.5-4.3,1.6c-1,1.1-1.6,2.1-1.8,3.3c-0.2,1.1-0.3,3.2-0.3,6.1c0,2.9,0.1,4.9,0.3,6.1c0.2,1.2,0.8,2.2,1.8,3.3
			c1,1,2.4,1.6,4.3,1.6c1.8,0,3.3-0.5,4.3-1.6c1-1.1,1.6-2.1,1.8-3.3c0.2-1.1,0.3-3.2,0.3-6.1c0-2.9-0.1-4.9-0.3-6.1
			C145.5,53.8,145,52.8,144.2,52z"></path>
		<path fill="#012D3D" d="M164.3,74.4c-2.7,0-4.9-0.8-6.6-2.5c-1.7-1.7-2.6-3.8-2.6-6.4V47.8h2.8v17.5c0,2,0.6,3.6,1.7,4.8
			c1.2,1.2,2.7,1.8,4.6,1.8c1.9,0,3.5-0.6,4.6-1.8c1.2-1.2,1.8-2.8,1.8-4.8V47.8h2.8v17.7c0,2.6-0.9,4.8-2.6,6.5
			C169.2,73.6,167,74.4,164.3,74.4z"></path>
		<path fill="#012D3D" d="M187.6,74.4c-2,0-3.7-0.3-5.1-0.8s-2.7-1.4-4-2.7l1.9-1.9c1.1,1.1,2.1,1.8,3.2,2.2c1.1,0.4,2.4,0.7,4,0.7
			c1.9,0,3.5-0.4,4.6-1.3c1.1-0.9,1.7-2.1,1.7-3.6c0-1.5-0.3-2.5-0.9-3c-0.6-0.5-1.2-0.9-1.7-1.1c-0.5-0.2-1.2-0.3-2.1-0.5l-3.1-0.5
			c-2.1-0.3-3.8-1.1-5-2.2c-1.2-1.1-1.9-2.7-1.9-4.8c0-2.3,0.8-4.1,2.3-5.4c1.5-1.4,3.6-2,6.2-2c1.7,0,3.1,0.2,4.3,0.7
			c1.2,0.4,2.4,1.2,3.5,2.2l-1.8,1.8c-0.8-0.7-1.7-1.3-2.7-1.7c-1-0.4-2.1-0.6-3.5-0.6c-1.8,0-3.1,0.4-4.1,1.3
			c-1,0.9-1.5,2.1-1.5,3.6c0,1.3,0.3,2.3,0.9,2.8c0.6,0.5,1.2,0.9,1.9,1.2c0.6,0.3,1.3,0.5,2,0.6l2.9,0.4c1.2,0.2,2.2,0.4,2.9,0.7
			s1.6,0.9,2.6,1.7c1,0.9,1.5,2.4,1.5,4.7c0,2.3-0.8,4.1-2.5,5.5C192.7,73.7,190.4,74.4,187.6,74.4z"></path>
		<path fill="#012D3D" d="M202.7,74.2V47.8h16.4v2.5h-13.6v9.3h11.6v2.5h-11.6v9.6h13.6v2.5H202.7z"></path>
	</g>
	<g>
		<path fill="#012D3D" d="M259.3,74.4V47.9h2.8v24h13.5v2.5H259.3z"></path>
		<path fill="#012D3D" d="M295.9,74.4l-2.1-6h-11.5l-2.2,6h-3l9.7-26.5h2.4l9.7,26.5L295.9,74.4z M288.1,52l-5,13.9h9.9L288.1,52z"></path>
		<path fill="#012D3D" d="M313.5,74.4h-10.3V47.9h10c2.3,0,4.2,0.6,5.6,1.9c1.4,1.3,2.2,3,2.2,5.2c0,1.4-0.4,2.6-1.1,3.6
			c-0.7,1-1.7,1.8-2.8,2.2c1.3,0.5,2.3,1.3,3.1,2.4c0.8,1.1,1.2,2.4,1.2,3.9c0,2.4-0.7,4.2-2.1,5.4C317.9,73.7,316,74.4,313.5,74.4z
			 M313,50.4h-6.9v9.2h6.9c1.6,0,2.8-0.4,3.8-1.2c1-0.8,1.4-1.9,1.4-3.5c0-1.5-0.5-2.6-1.4-3.4C315.8,50.8,314.5,50.4,313,50.4z
			 M313.3,62.1h-7.2v9.7h7.2c1.6,0,2.9-0.4,3.9-1.3c1-0.9,1.4-2.1,1.4-3.6s-0.5-2.7-1.4-3.5C316.2,62.5,314.9,62.1,313.3,62.1z"></path>
		<path fill="#012D3D" d="M334.8,74.5c-2,0-3.7-0.3-5.1-0.8c-1.4-0.5-2.7-1.4-4-2.7l1.9-1.9c1.1,1.1,2.1,1.8,3.2,2.2
			c1.1,0.4,2.4,0.6,4,0.6c1.9,0,3.5-0.4,4.6-1.3c1.1-0.9,1.7-2.1,1.7-3.6c0-1.5-0.3-2.5-0.9-3c-0.6-0.5-1.2-0.9-1.7-1.1
			c-0.5-0.2-1.2-0.3-2.1-0.5l-3.1-0.5c-2.1-0.3-3.8-1.1-5-2.2c-1.2-1.1-1.9-2.7-1.9-4.8c0-2.3,0.8-4.1,2.3-5.4c1.5-1.4,3.6-2,6.2-2
			c1.7,0,3.1,0.2,4.3,0.7c1.2,0.4,2.4,1.2,3.5,2.2l-1.8,1.8c-0.8-0.7-1.7-1.3-2.7-1.7c-1-0.4-2.1-0.6-3.5-0.6
			c-1.8,0-3.1,0.4-4.1,1.3c-1,0.9-1.5,2.1-1.5,3.6c0,1.3,0.3,2.3,0.9,2.8c0.6,0.5,1.2,0.9,1.9,1.2c0.6,0.3,1.3,0.5,2,0.6l2.9,0.4
			c1.2,0.2,2.2,0.4,2.9,0.7c0.7,0.3,1.6,0.9,2.6,1.7c1,0.9,1.5,2.4,1.5,4.7c0,2.3-0.8,4.1-2.5,5.5C339.9,73.9,337.6,74.5,334.8,74.5
			z"></path>
	</g>
</g>
</svg>